<svg xmlns="http://www.w3.org/2000/svg" xmlns:xlink="http://www.w3.org/1999/xlink" width="221" height="36" viewBox="0 0 221 36"><defs><path id="yl0va" d="M1547.776 584.54h-7.08v-5.48h-11.44v5.48h-6.96V573.1h2.28c1.813-2.586 2.72-7.48 2.72-14.68h18.16v14.68h2.32zm-10.12-11.44v-8.96h-3.56v.24c0 1.227-.153 2.754-.46 4.58-.306 1.827-.78 3.207-1.42 4.14z"/><path id="yl0vb" d="M1560.736 557.819c3.333 0 6.04 1 8.12 3 2.08 2 3.12 4.615 3.12 7.841 0 3.253-1.054 5.9-3.16 7.94-2.107 2.04-4.827 3.06-8.16 3.06-3.36 0-6.094-1.014-8.2-3.04-2.107-2.026-3.16-4.653-3.16-7.88 0-3.226 1.06-5.853 3.18-7.881 2.12-2.025 4.873-3.04 8.26-3.04zm-.16 5.721c-2.24 0-3.36 1.733-3.36 5.2 0 3.493 1.146 5.239 3.44 5.239 2.266 0 3.4-1.772 3.4-5.319 0-3.413-1.16-5.12-3.48-5.12z"/><path id="yl0vc" d="M1597.016 568.94c0 3.173-1.027 5.753-3.08 7.74-2.053 1.988-4.707 2.98-7.96 2.98-3.6 0-6.4-1.174-8.4-3.52-1.76-2.026-2.64-5.533-2.64-10.52 0-3.627.56-6.62 1.68-8.98 1.12-2.36 3.026-4.046 5.72-5.06.826-.32 1.76-.554 2.8-.7 1.04-.146 1.893-.306 2.56-.48.667-.173 1.2-.486 1.6-.94h7.28c-.054 1.12-.3 2.1-.74 2.94-.44.84-.874 1.48-1.3 1.92-.427.44-1.207.853-2.34 1.24-1.134.387-1.947.634-2.44.74-.493.107-1.487.28-2.98.52-.4.08-.694.133-.88.16-3.627.613-5.654 2.373-6.08 5.28h.12c1.413-2.56 3.986-3.84 7.72-3.84 2.64 0 4.86.98 6.66 2.94 1.8 1.96 2.7 4.486 2.7 7.58zm-7.92 0c0-3.227-1.067-4.84-3.2-4.84-2.053 0-3.08 1.64-3.08 4.92 0 3.307 1.053 4.96 3.16 4.96 2.08 0 3.12-1.68 3.12-5.04z"/><path id="yl0vd" d="M1621.776 579.06h-8a8.999 8.999 0 0 1-.32-1.92c-1.734 1.734-3.933 2.6-6.6 2.6-2.347 0-4.18-.574-5.5-1.72-1.32-1.146-1.98-2.733-1.98-4.76 0-1.04.213-1.947.64-2.72.426-.774.86-1.366 1.3-1.78.44-.413 1.193-.787 2.26-1.12 1.066-.334 1.826-.54 2.28-.62.453-.08 1.333-.214 2.64-.4a.33.33 0 0 1 .14-.04c.04 0 .093-.007.16-.02.066-.013.126-.02.18-.02.133-.026.453-.06.96-.1.506-.04.9-.087 1.18-.14.28-.053.613-.147 1-.28.387-.133.673-.334.86-.6.186-.267.28-.586.28-.96 0-1.2-.867-1.8-2.6-1.8-.96 0-1.653.146-2.08.44-.426.293-.707.84-.84 1.64h-7.4c.187-4.613 3.627-6.92 10.32-6.92 5.307 0 8.56 1.28 9.76 3.84.373.773.56 2.026.56 3.76 0 .827-.013 2.047-.04 3.66-.027 1.613-.04 2.98-.04 4.1 0 2.747.293 4.707.88 5.88zm-8.48-9.4c-.587.4-1.813.8-3.68 1.2-1.44.32-2.16 1.04-2.16 2.16 0 .64.2 1.147.6 1.52.4.373.947.56 1.64.56 1.44 0 2.48-.534 3.12-1.6.32-.533.48-1.4.48-2.6z"/><path id="yl0ve" d="M1624.696 579.06v-20.64h12.56c2.906 0 5.033.407 6.38 1.22 1.347.813 2.02 2.114 2.02 3.9 0 2.08-1 3.533-3 4.359v.08c1.066.214 1.966.761 2.7 1.641.733.88 1.1 1.906 1.1 3.08 0 4.239-2.867 6.36-8.6 6.36zm7.68-16.241v3.441h3.08c1.52 0 2.28-.6 2.28-1.8 0-1.094-.72-1.641-2.16-1.641zm3.4 11.721c.667 0 1.22-.187 1.66-.561.44-.373.66-.892.66-1.559 0-1.307-.894-1.96-2.68-1.96h-3.04v4.08z"/><path id="yl0vf" d="M1663.535 558.42h7.88v20.64h-7.56v-11h-.12l-6 11h-7.88v-20.64h7.56v10.72h.12z"/><path id="yl0vg" d="M1680.776 564.38h-6.6v-5.96h21.04v5.96h-6.6v14.68h-7.84z"/><path id="yl0vh" d="M1718.936 571.82c0 2.266-.707 4.04-2.12 5.32-1.414 1.28-3.507 1.92-6.28 1.92h-12.56v-20.64h7.88v6.44h4.88c2.773 0 4.833.607 6.18 1.82 1.346 1.214 2.02 2.927 2.02 5.14zm-8.08.16c0-1.52-.88-2.28-2.64-2.28h-2.36v4.56h2.36c1.76 0 2.64-.76 2.64-2.28z"/><path id="yl0vi" d="M1721.495 565.46h7.08v-7.2h6.56v7.2h7.08v6.28h-7.08v7.32h-6.56v-7.32h-7.08z"/></defs><g><g transform="translate(-1522 -549)"><use fill="#fff" xlink:href="#yl0va"/></g><g transform="translate(-1522 -549)"><use fill="#fff" xlink:href="#yl0vb"/></g><g transform="translate(-1522 -549)"><use fill="#fff" xlink:href="#yl0vc"/></g><g transform="translate(-1522 -549)"><use fill="#fff" xlink:href="#yl0vd"/></g><g transform="translate(-1522 -549)"><use fill="#fff" xlink:href="#yl0ve"/></g><g transform="translate(-1522 -549)"><use fill="#fff" xlink:href="#yl0vf"/></g><g transform="translate(-1522 -549)"><use fill="#fff" xlink:href="#yl0vg"/></g><g transform="translate(-1522 -549)"><use fill="#fff" xlink:href="#yl0vh"/></g><g transform="translate(-1522 -549)"><use fill="#fff" xlink:href="#yl0vi"/></g></g></svg>