<svg xmlns="http://www.w3.org/2000/svg" xmlns:xlink="http://www.w3.org/1999/xlink" width="770" height="57" viewBox="0 0 770 57"><defs><path id="94zja" d="M1025.775 207.884h-11.505v-8.905h-18.59v8.905h-11.31v-18.59h3.705c2.946-4.203 4.42-12.155 4.42-23.855h29.51v23.855h3.77zm-16.445-18.59v-14.56h-5.785v.39c0 1.993-.25 4.475-.748 7.442-.498 2.97-1.267 5.211-2.307 6.728z"/><path id="94zjb" d="M1046.834 164.464c5.416 0 9.815 1.625 13.195 4.875 3.38 3.25 5.07 7.497 5.07 12.74 0 5.287-1.713 9.587-5.135 12.903-3.424 3.314-7.844 4.971-13.26 4.971-5.46 0-9.902-1.645-13.325-4.939-3.424-3.293-5.135-7.562-5.135-12.805 0-5.243 1.722-9.512 5.167-12.805 3.445-3.292 7.92-4.94 13.423-4.94zm-.26 9.295c-3.64 0-5.46 2.817-5.46 8.45 0 5.677 1.862 8.515 5.59 8.515 3.683 0 5.525-2.882 5.525-8.646 0-5.546-1.885-8.319-5.655-8.319z"/><path id="94zjc" d="M1105.789 182.534c0 5.157-1.67 9.35-5.005 12.578-3.338 3.229-7.65 4.842-12.935 4.842-5.85 0-10.4-1.906-13.65-5.72-2.86-3.293-4.29-8.991-4.29-17.095 0-5.892.91-10.757 2.73-14.592 1.82-3.835 4.917-6.575 9.295-8.223 1.342-.52 2.86-.898 4.55-1.138 1.69-.237 3.076-.497 4.16-.78 1.083-.28 1.95-.79 2.6-1.526h11.83c-.088 1.819-.488 3.412-1.203 4.777-.715 1.365-1.42 2.404-2.112 3.12-.694.715-1.962 1.387-3.803 2.015-1.842.629-3.163 1.03-3.965 1.202-.802.174-2.416.455-4.842.846-.65.13-1.127.216-1.43.259-5.894.998-9.188 3.858-9.88 8.58h.195c2.296-4.16 6.477-6.24 12.545-6.24 4.29 0 7.897 1.593 10.822 4.778 2.925 3.185 4.388 7.29 4.388 12.317zm-12.87 0c0-5.242-1.734-7.864-5.2-7.864-3.338 0-5.005 2.665-5.005 7.994 0 5.374 1.71 8.06 5.135 8.06 3.38 0 5.07-2.73 5.07-8.19z"/><path id="94zjd" d="M1146.023 198.979h-13c-.304-1.126-.478-2.166-.52-3.12-2.818 2.818-6.393 4.226-10.725 4.226-3.814 0-6.793-.933-8.938-2.796-2.145-1.862-3.217-4.44-3.217-7.734 0-1.691.346-3.163 1.04-4.42.692-1.257 1.397-2.221 2.112-2.893.715-.672 1.939-1.278 3.673-1.82 1.732-.541 2.967-.877 3.705-1.008.736-.13 2.166-.346 4.29-.65a.527.527 0 0 1 .227-.065c.065 0 .152-.01.26-.032a1.46 1.46 0 0 1 .293-.032c.216-.043.736-.098 1.56-.163.822-.065 1.462-.14 1.917-.228.455-.086.997-.237 1.625-.455.628-.216 1.094-.541 1.398-.975.302-.432.455-.952.455-1.56 0-1.95-1.41-2.925-4.225-2.925-1.56 0-2.688.239-3.38.716-.694.476-1.15 1.364-1.365 2.665h-12.025c.302-7.497 5.893-11.245 16.77-11.245 8.623 0 13.91 2.08 15.86 6.239.606 1.258.91 3.294.91 6.11 0 1.344-.022 3.327-.065 5.948a405.796 405.796 0 0 0-.065 6.663c0 4.463.476 7.648 1.43 9.554zm-13.78-15.275c-.954.65-2.948 1.3-5.98 1.95-2.34.52-3.51 1.69-3.51 3.51 0 1.04.325 1.864.975 2.47.65.608 1.537.91 2.665.91 2.34 0 4.03-.866 5.07-2.6.52-.866.78-2.274.78-4.224z"/><path id="94zje" d="M1150.767 198.98v-33.54h20.41c4.722 0 8.178.66 10.367 1.981 2.188 1.322 3.283 3.435 3.283 6.338 0 3.38-1.625 5.742-4.875 7.085v.13c1.733.347 3.195 1.235 4.387 2.665 1.192 1.43 1.788 3.1 1.788 5.005 0 6.89-4.659 10.335-13.975 10.335zm12.48-26.39v5.59h5.005c2.47 0 3.705-.977 3.705-2.926 0-1.776-1.17-2.665-3.51-2.665zm5.525 19.044c1.083 0 1.982-.303 2.697-.91.715-.607 1.073-1.45 1.073-2.535 0-2.123-1.453-3.185-4.355-3.185h-4.94v6.63z"/><path id="94zjf" d="M1213.882 165.439h12.805v33.54h-12.285v-17.875h-.195l-9.75 17.875h-12.805v-33.54h12.285v17.42h.195z"/><path id="94zjg" d="M1241.896 175.124h-10.725v-9.685h34.19v9.685h-10.725v23.855h-12.74z"/><path id="94zjh" d="M1303.906 187.214c0 3.684-1.149 6.565-3.445 8.645-2.297 2.08-5.699 3.12-10.205 3.12h-20.41v-33.54h12.805v10.465h7.93c4.507 0 7.854.986 10.043 2.958 2.187 1.971 3.282 4.756 3.282 8.352zm-13.13.26c0-2.47-1.43-3.705-4.29-3.705h-3.835v7.41h3.835c2.86 0 4.29-1.235 4.29-3.705z"/><path id="94zji" d="M1352.85 176.489v-11.05h12.806v33.54h-12.805v-12.804h-9.425v12.804h-12.805v-33.54h12.805v11.05z"/><path id="94zjj" d="M1389.77 164.464c5.417 0 9.816 1.625 13.196 4.875 3.38 3.25 5.07 7.497 5.07 12.74 0 5.287-1.714 9.587-5.136 12.903-3.424 3.314-7.844 4.971-13.26 4.971-5.46 0-9.902-1.645-13.325-4.939-3.424-3.293-5.135-7.562-5.135-12.805 0-5.243 1.722-9.512 5.167-12.805 3.445-3.292 7.92-4.94 13.423-4.94zm-.26 9.295c-3.64 0-5.46 2.817-5.46 8.45 0 5.677 1.863 8.515 5.59 8.515 3.683 0 5.525-2.882 5.525-8.646 0-5.546-1.884-8.319-5.654-8.319z"/><path id="94zjk" d="M1413.04 198.98v-33.54h20.41c4.722 0 8.178.66 10.367 1.981 2.188 1.322 3.283 3.435 3.283 6.338 0 3.38-1.625 5.742-4.875 7.085v.13c1.733.347 3.195 1.235 4.387 2.665 1.192 1.43 1.788 3.1 1.788 5.005 0 6.89-4.66 10.335-13.975 10.335zm12.48-26.39v5.59h5.005c2.47 0 3.705-.977 3.705-2.926 0-1.776-1.17-2.665-3.51-2.665zm5.525 19.044c1.083 0 1.982-.303 2.697-.91.715-.607 1.073-1.45 1.073-2.535 0-2.123-1.453-3.185-4.355-3.185h-4.94v6.63z"/><path id="94zjl" d="M1470.954 164.464c5.416 0 9.815 1.625 13.195 4.875 3.38 3.25 5.07 7.497 5.07 12.74 0 5.287-1.713 9.587-5.135 12.903-3.424 3.314-7.844 4.971-13.26 4.971-5.46 0-9.902-1.645-13.325-4.939-3.424-3.293-5.135-7.562-5.135-12.805 0-5.243 1.722-9.512 5.167-12.805 3.445-3.292 7.92-4.94 13.423-4.94zm-.26 9.295c-3.64 0-5.46 2.817-5.46 8.45 0 5.677 1.862 8.515 5.59 8.515 3.683 0 5.525-2.882 5.525-8.646 0-5.546-1.885-8.319-5.655-8.319z"/><path id="94zjm" d="M1529.648 188.904c-.997 3.554-3.153 6.284-6.468 8.19-3.315 1.907-6.945 2.86-10.887 2.86-5.46 0-9.989-1.537-13.585-4.614-3.598-3.078-5.395-7.324-5.395-12.741 0-5.243 1.744-9.554 5.233-12.935 3.487-3.38 7.918-5.07 13.292-5.07 5.633 0 10.13 1.755 13.487 5.265 3.358 3.51 5.038 8.233 5.038 14.17v.976h-24.7c.086 2.123.704 3.769 1.852 4.939 1.148 1.17 2.72 1.755 4.713 1.755 2.382 0 4.181-.931 5.395-2.795zm-11.83-10.335c-.347-3.813-2.319-5.72-5.915-5.72-3.467 0-5.525 1.907-6.175 5.72z"/><path id="94zjn" d="M1591.982 185.524c-.607 4.508-2.46 8.018-5.558 10.53-3.098 2.514-7.096 3.77-11.992 3.77-5.417 0-9.826-1.603-13.227-4.81-3.403-3.206-5.103-7.387-5.103-12.545 0-5.33 1.69-9.631 5.07-12.902 3.38-3.272 7.821-4.908 13.325-4.908 4.853 0 8.85 1.235 11.993 3.705 3.141 2.47 4.885 5.72 5.232 9.75h-12.285c-.174-1.343-.705-2.404-1.592-3.185-.889-.78-1.962-1.17-3.218-1.17-3.77 0-5.655 2.925-5.655 8.775 0 5.288 1.863 7.93 5.59 7.93 2.903 0 4.615-1.646 5.135-4.94z"/><path id="94zjo" d="M1630.202 198.979h-12.545v-23.855h-6.37c0 5.937-.347 10.508-1.04 13.715-.78 3.858-2.156 6.619-4.128 8.287-1.972 1.669-4.777 2.503-8.417 2.503-.564 0-1.225-.076-1.982-.227a28.644 28.644 0 0 1-1.853-.423l-.715-.26v-9.165c.822.304 1.516.455 2.08.455.563 0 1.05-.12 1.463-.357.41-.238.757-.607 1.039-1.106.282-.497.51-.974.683-1.43.173-.454.292-1.061.357-1.82.065-.757.119-1.353.163-1.787a27.71 27.71 0 0 0 .098-1.788 77.01 77.01 0 0 0 .032-1.397c.13-2.99.195-7.951.195-14.885h30.94z"/><path id="94zjp" d="M1654.446 164.464c5.416 0 9.815 1.625 13.195 4.875 3.38 3.25 5.07 7.497 5.07 12.74 0 5.287-1.713 9.587-5.135 12.903-3.424 3.314-7.844 4.971-13.26 4.971-5.46 0-9.902-1.645-13.325-4.939-3.424-3.293-5.135-7.562-5.135-12.805 0-5.243 1.722-9.512 5.167-12.805 3.445-3.292 7.92-4.94 13.423-4.94zm-.26 9.295c-3.64 0-5.46 2.817-5.46 8.45 0 5.677 1.862 8.515 5.59 8.515 3.683 0 5.525-2.882 5.525-8.646 0-5.546-1.885-8.319-5.655-8.319z"/><path id="94zjq" d="M1677.716 198.98v-33.54h20.41c4.722 0 8.178.66 10.367 1.981 2.188 1.322 3.283 3.435 3.283 6.338 0 3.38-1.626 5.742-4.876 7.085v.13c1.733.347 3.195 1.235 4.387 2.665 1.192 1.43 1.788 3.1 1.788 5.005 0 6.89-4.659 10.335-13.975 10.335zm12.48-26.39v5.59h5.005c2.47 0 3.705-.977 3.705-2.926 0-1.776-1.17-2.665-3.51-2.665zm5.524 19.044c1.083 0 1.982-.303 2.697-.91.715-.607 1.073-1.45 1.073-2.535 0-2.123-1.453-3.185-4.355-3.185h-4.94v6.63z"/><path id="94zjr" d="M1735.63 164.464c5.416 0 9.815 1.625 13.195 4.875 3.38 3.25 5.07 7.497 5.07 12.74 0 5.287-1.713 9.587-5.135 12.903-3.424 3.314-7.844 4.971-13.26 4.971-5.46 0-9.902-1.645-13.325-4.939-3.424-3.293-5.135-7.562-5.135-12.805 0-5.243 1.722-9.512 5.167-12.805 3.445-3.292 7.919-4.94 13.423-4.94zm-.26 9.295c-3.64 0-5.46 2.817-5.46 8.45 0 5.677 1.862 8.515 5.59 8.515 3.683 0 5.525-2.882 5.525-8.646 0-5.546-1.885-8.319-5.655-8.319z"/></defs><g><g transform="translate(-984 -151)"><use fill="#d55256" xlink:href="#94zja"/></g><g transform="translate(-984 -151)"><use fill="#d55256" xlink:href="#94zjb"/></g><g transform="translate(-984 -151)"><use fill="#d55256" xlink:href="#94zjc"/></g><g transform="translate(-984 -151)"><use fill="#d55256" xlink:href="#94zjd"/></g><g transform="translate(-984 -151)"><use fill="#d55256" xlink:href="#94zje"/></g><g transform="translate(-984 -151)"><use fill="#d55256" xlink:href="#94zjf"/></g><g transform="translate(-984 -151)"><use fill="#d55256" xlink:href="#94zjg"/></g><g transform="translate(-984 -151)"><use fill="#d55256" xlink:href="#94zjh"/></g><g transform="translate(-984 -151)"><use fill="#d55256" xlink:href="#94zji"/></g><g transform="translate(-984 -151)"><use fill="#d55256" xlink:href="#94zjj"/></g><g transform="translate(-984 -151)"><use fill="#d55256" xlink:href="#94zjk"/></g><g transform="translate(-984 -151)"><use fill="#d55256" xlink:href="#94zjl"/></g><g transform="translate(-984 -151)"><use fill="#d55256" xlink:href="#94zjm"/></g><g transform="translate(-984 -151)"><use fill="#d55256" xlink:href="#94zjn"/></g><g transform="translate(-984 -151)"><use fill="#d55256" xlink:href="#94zjo"/></g><g transform="translate(-984 -151)"><use fill="#d55256" xlink:href="#94zjp"/></g><g transform="translate(-984 -151)"><use fill="#d55256" xlink:href="#94zjq"/></g><g transform="translate(-984 -151)"><use fill="#d55256" xlink:href="#94zjr"/></g></g></svg>