<svg xmlns="http://www.w3.org/2000/svg" xmlns:xlink="http://www.w3.org/1999/xlink" width="514" height="158" viewBox="0 0 514 158"><defs><path id="mci6a" d="M1401.573 153.082h-7.725V134.18h-8.51v18.9h-7.725v-25.053h23.96z"/><path id="mci6b" d="M1404.273 134.932h7.339l3.744 12.083 3.477-12.083h6.854l-7.201 19.393c-.82 2.211-1.657 3.705-2.511 4.48-1.207 1.095-3.047 1.642-5.518 1.642-1.002 0-2.551-.137-4.646-.41l-.547-4.854c1.002.32 2.117.48 3.347.48.819 0 1.482-.189 1.989-.565.506-.377.936-1.05 1.289-2.02z"/><path id="mci6c" d="M1456.209 153.082h-28.66v-18.15h6.956v13.074h3.896v-13.073h6.956v13.073h3.879v-13.073h6.973z"/><path id="mci6d" d="M1481.075 153.082h-7.85l-2.653-5.012c-.422-.795-.837-1.296-1.242-1.5-.406-.205-.906-.307-1.5-.307v6.819h-6.955v-18.15h6.955v6.563c.57-.057.992-.245 1.265-.564.273-.32.669-1.02 1.188-2.102.518-1.082.982-1.874 1.393-2.375.41-.501.934-.877 1.572-1.128.638-.251 1.435-.411 2.392-.48.957-.067 2.38-.101 4.273-.101v4.939h-.308c-.934 0-1.646.037-2.136.11-.49.075-.883.23-1.18.47-.296.24-.637.73-1.025 1.47-.387.74-.71 1.256-.965 1.547-.257.29-.636.487-1.137.59.969.09 1.715.299 2.239.623.524.325 1.316 1.37 2.376 3.136z"/><path id="mci6e" d="M1489.688 140.812l-6.648-.701c.25-1.162.613-2.077 1.086-2.743.472-.667 1.153-1.244 2.042-1.734.637-.353 1.515-.627 2.632-.821a21.288 21.288 0 0 1 3.623-.29c2.085 0 3.759.117 5.024.35 1.265.234 2.318.72 3.162 1.46.592.514 1.059 1.24 1.4 2.18.343.94.514 1.837.514 2.692v8.015c0 .854.053 1.524.162 2.008.108.485.345 1.102.709 1.854h-6.528c-.262-.467-.433-.822-.513-1.068-.08-.245-.16-.63-.24-1.153-.911.877-1.816 1.504-2.716 1.879-1.231.5-2.661.752-4.29.752-2.165 0-3.808-.501-4.93-1.503-1.123-1.003-1.684-2.24-1.684-3.71 0-1.377.405-2.511 1.214-3.4.808-.89 2.3-1.55 4.477-1.982 2.609-.524 4.3-.891 5.076-1.103.774-.21 1.595-.487 2.46-.828 0-.855-.176-1.453-.53-1.795-.352-.342-.973-.513-1.862-.513-1.14 0-1.994.183-2.563.547-.444.285-.803.82-1.077 1.607zm6.033 3.657a32.65 32.65 0 0 1-2.991.906c-1.413.376-2.307.746-2.683 1.11-.388.377-.581.804-.581 1.282 0 .547.19.994.573 1.342.38.348.942.52 1.683.52.774 0 1.496-.187 2.162-.563.667-.376 1.139-.834 1.419-1.375.278-.541.418-1.245.418-2.111z"/><path id="mci6f" d="M1506.71 146.178h7.433v5.725c0 2.108-.439 3.77-1.316 4.99-.877 1.219-2.375 2.296-4.494 3.23l-1.624-3.042c1.321-.615 2.23-1.228 2.726-1.837.496-.61.772-1.33.83-2.162h-3.556z"/><path id="mci6g" d="M1545.315 140.008h-5.042v13.074h-6.972v-13.074h-5.042v-5.076h17.056z"/><path id="mci6h" d="M1561.482 143.426c1.379.136 2.475.592 3.29 1.367.814.775 1.222 1.811 1.222 3.11 0 1.732-.57 3.028-1.71 3.888-1.14.861-3.183 1.29-6.134 1.29h-10.357v-18.149h11.194c2.028 0 3.574.388 4.64 1.165 1.065.776 1.598 1.86 1.598 3.253 0 .982-.348 1.835-1.042 2.56-.696.725-1.596 1.208-2.701 1.447zm-6.733-1.573h1.76c1.162 0 1.743-.532 1.743-1.598 0-.86-.615-1.29-1.845-1.29h-1.658zm0 6.956h2.29c.569 0 1.03-.13 1.384-.393.353-.262.53-.644.53-1.145 0-1.094-.638-1.64-1.914-1.64h-2.29z"/><path id="mci6i" d="M1568.472 144.058c0-2.768.934-5.05 2.803-6.845 1.868-1.794 4.392-2.69 7.57-2.69 3.635 0 6.38 1.053 8.238 3.161 1.492 1.697 2.239 3.788 2.239 6.272 0 2.791-.926 5.078-2.777 6.861-1.852 1.784-4.413 2.675-7.682 2.675-2.917 0-5.275-.74-7.075-2.222-2.211-1.834-3.316-4.238-3.316-7.212zm6.973-.017c0 1.618.327 2.814.983 3.59.655.774 1.478 1.161 2.469 1.161 1.003 0 1.826-.38 2.469-1.145.644-.763.966-1.988.966-3.674 0-1.573-.325-2.743-.974-3.513-.65-.768-1.453-1.153-2.41-1.153-1.014 0-1.851.391-2.512 1.171s-.991 1.968-.991 3.563z"/><path id="mci6j" d="M1612.82 145.733h-13.945c.125 1.117.427 1.948.906 2.495.672.786 1.549 1.18 2.631 1.18.684 0 1.333-.171 1.949-.513.376-.216.78-.598 1.213-1.145l6.853.632c-1.048 1.823-2.313 3.131-3.794 3.923-1.481.791-3.606 1.187-6.374 1.187-2.405 0-4.296-.339-5.674-1.017-1.379-.677-2.521-1.754-3.427-3.23-.905-1.475-1.358-3.21-1.358-5.204 0-2.837.908-5.132 2.725-6.887 1.818-1.754 4.327-2.632 7.529-2.632 2.597 0 4.648.393 6.152 1.179a7.968 7.968 0 0 1 3.435 3.418c.786 1.493 1.179 3.436 1.179 5.828zm-16.42-13.093v-4.27h4.44v4.27zm9.345 9.761c-.137-1.345-.499-2.307-1.085-2.888-.587-.582-1.359-.872-2.316-.872-1.105 0-1.988.439-2.649 1.316-.422.547-.689 1.362-.803 2.444zm-2.105-9.761v-4.27h4.49v4.27z"/><path id="mci6k" d="M1641.224 145.972l6.614.752c-.365 1.38-.963 2.573-1.795 3.58-.832 1.01-1.894 1.793-3.187 2.35-1.293.559-2.937.839-4.93.839-1.926 0-3.53-.18-4.811-.538-1.282-.359-2.384-.94-3.307-1.743a8.774 8.774 0 0 1-2.17-2.824c-.525-1.082-.787-2.516-.787-4.304 0-1.866.318-3.42.956-4.661a8.434 8.434 0 0 1 1.916-2.45c.808-.723 1.64-1.261 2.495-1.614 1.354-.557 3.092-.836 5.211-.836 2.962 0 5.221.53 6.776 1.589 1.557 1.06 2.647 2.61 3.274 4.649l-6.547.87c-.205-.773-.578-1.357-1.119-1.751-.54-.392-1.268-.59-2.179-.59-1.15 0-2.082.413-2.794 1.238-.712.824-1.068 2.072-1.068 3.744 0 1.49.353 2.622 1.06 3.395.705.773 1.606 1.16 2.7 1.16.911 0 1.677-.233 2.298-.701.621-.466 1.085-1.184 1.393-2.153z"/><path id="mci6l" d="M1671.883 153.082h-6.956v-13.074h-5.28v7.615c0 2.03-.413 3.536-1.24 4.517-.826.98-2.093 1.472-3.802 1.472-1.937 0-3.674-.177-5.212-.53v-5.144c.82.25 1.447.376 1.88.376.934 0 1.4-.696 1.4-2.087v-11.294h19.21z"/><path id="mci6m" d="M1675.232 144.058c0-2.768.934-5.05 2.803-6.845 1.868-1.794 4.392-2.69 7.571-2.69 3.634 0 6.38 1.053 8.237 3.161 1.492 1.697 2.239 3.788 2.239 6.272 0 2.791-.926 5.078-2.777 6.861-1.852 1.784-4.413 2.675-7.682 2.675-2.917 0-5.275-.74-7.075-2.222-2.211-1.834-3.316-4.238-3.316-7.212zm6.973-.017c0 1.618.327 2.814.983 3.59.655.774 1.478 1.161 2.469 1.161 1.003 0 1.826-.38 2.469-1.145.644-.763.966-1.988.966-3.674 0-1.573-.325-2.743-.974-3.513-.649-.768-1.453-1.153-2.41-1.153-1.014 0-1.851.391-2.512 1.171s-.991 1.968-.991 3.563z"/><path id="mci6n" d="M1713.12 143.426c1.38.136 2.475.592 3.29 1.367.814.775 1.222 1.811 1.222 3.11 0 1.732-.57 3.028-1.709 3.888-1.14.861-3.184 1.29-6.135 1.29h-10.357v-18.149h11.194c2.028 0 3.574.388 4.64 1.165 1.065.776 1.598 1.86 1.598 3.253 0 .982-.348 1.835-1.042 2.56-.696.725-1.596 1.208-2.7 1.447zm-6.733-1.573h1.76c1.162 0 1.743-.532 1.743-1.598 0-.86-.615-1.29-1.845-1.29h-1.658zm0 6.956h2.29c.57 0 1.031-.13 1.384-.393.353-.262.53-.644.53-1.145 0-1.094-.638-1.64-1.914-1.64h-2.29z"/><path id="mci6o" d="M1720.11 144.058c0-2.768.934-5.05 2.803-6.845 1.868-1.794 4.392-2.69 7.57-2.69 3.635 0 6.38 1.053 8.238 3.161 1.492 1.697 2.239 3.788 2.239 6.272 0 2.791-.926 5.078-2.777 6.861-1.852 1.784-4.413 2.675-7.682 2.675-2.917 0-5.275-.74-7.075-2.222-2.211-1.834-3.316-4.238-3.316-7.212zm6.973-.017c0 1.618.327 2.814.983 3.59.655.774 1.478 1.161 2.469 1.161 1.003 0 1.826-.38 2.469-1.145.644-.763.966-1.988.966-3.674 0-1.573-.325-2.743-.974-3.513-.65-.768-1.453-1.153-2.41-1.153-1.014 0-1.851.391-2.512 1.171s-.991 1.968-.991 3.563z"/><path id="mci6p" d="M1335.281 200.26h-4.82v-5.178h-12.85v5.178h-4.838v-10.254h1.761c1.276-2.282 1.914-5.27 1.914-8.967v-4.107h16.92v13.074h1.913zm-8.887-10.254v-7.998h-3.333v.206c0 2.523-.546 5.121-1.64 7.792z"/><path id="mci6q" d="M1336.956 186.058c0-2.768.934-5.05 2.803-6.845 1.868-1.794 4.392-2.69 7.57-2.69 3.635 0 6.38 1.053 8.238 3.161 1.492 1.697 2.239 3.788 2.239 6.272 0 2.791-.926 5.078-2.777 6.861-1.852 1.784-4.413 2.675-7.682 2.675-2.917 0-5.275-.74-7.075-2.222-2.211-1.834-3.316-4.238-3.316-7.212zm6.973-.017c0 1.618.327 2.814.983 3.59.655.774 1.478 1.161 2.469 1.161 1.003 0 1.826-.38 2.469-1.145.644-.763.966-1.988.966-3.674 0-1.573-.325-2.743-.974-3.513-.65-.768-1.453-1.153-2.41-1.153-1.014 0-1.851.391-2.512 1.171s-.991 1.968-.991 3.563z"/><path id="mci6r" d="M1367.24 177.462c.83-.626 1.975-.94 3.434-.94 3.406 0 6.001.898 7.784 2.694 1.783 1.796 2.675 4.034 2.675 6.714 0 2.657-.886 4.918-2.657 6.783-1.772 1.864-4.373 2.796-7.802 2.796-3.418 0-5.999-.937-7.742-2.811-1.743-1.874-2.615-4.931-2.615-9.169 0-3.919.752-7.086 2.256-9.502 1.504-2.415 3.67-3.668 6.494-3.76l2.102-.068c1.88-.08 2.917-.325 3.111-.735h5.52c0 3.316-1.863 5.042-5.589 5.178-2.518.091-4.227.336-5.127.737-.9.401-1.515 1.095-1.845 2.083zm3.468 13.279c1.116 0 1.974-.411 2.572-1.232.598-.823.897-1.998.897-3.528 0-1.517-.307-2.682-.923-3.492-.615-.811-1.44-1.216-2.478-1.216-1.15 0-2.022.443-2.614 1.327-.593.885-.889 2.035-.889 3.45 0 1.472.293 2.622.88 3.45.587.827 1.438 1.241 2.555 1.241z"/><path id="mci6s" d="M1390.84 182.812l-6.648-.701c.25-1.162.613-2.077 1.086-2.743.472-.667 1.153-1.244 2.042-1.734.637-.353 1.515-.627 2.632-.821a21.288 21.288 0 0 1 3.623-.29c2.085 0 3.759.117 5.024.35 1.265.234 2.318.72 3.162 1.46.592.514 1.059 1.24 1.4 2.18.343.94.514 1.837.514 2.692v8.015c0 .854.053 1.524.162 2.008.108.485.345 1.102.709 1.854h-6.528c-.262-.467-.433-.822-.513-1.068-.08-.245-.16-.63-.24-1.153-.911.877-1.816 1.504-2.716 1.879-1.231.5-2.661.752-4.29.752-2.165 0-3.808-.501-4.93-1.503-1.123-1.003-1.684-2.24-1.684-3.71 0-1.377.405-2.511 1.214-3.4.808-.89 2.3-1.55 4.477-1.982 2.609-.524 4.3-.891 5.076-1.103.774-.21 1.595-.487 2.46-.828 0-.855-.176-1.453-.53-1.795-.352-.342-.973-.513-1.862-.513-1.14 0-1.994.183-2.563.547-.444.285-.803.82-1.077 1.607zm6.033 3.657a32.65 32.65 0 0 1-2.991.906c-1.413.376-2.307.746-2.683 1.11-.388.377-.581.804-.581 1.282 0 .547.19.994.573 1.342.38.348.942.52 1.683.52.774 0 1.496-.187 2.162-.563.667-.376 1.139-.834 1.419-1.375.278-.541.418-1.245.418-2.111z"/><path id="mci6t" d="M1421.533 185.426c1.38.136 2.475.592 3.29 1.367.814.775 1.222 1.811 1.222 3.11 0 1.732-.57 3.028-1.709 3.888-1.14.861-3.184 1.29-6.135 1.29h-10.357v-18.149h11.194c2.028 0 3.574.388 4.64 1.165 1.065.776 1.598 1.86 1.598 3.253 0 .982-.348 1.835-1.042 2.56-.696.725-1.596 1.208-2.7 1.447zm-6.733-1.573h1.76c1.162 0 1.743-.532 1.743-1.598 0-.86-.615-1.29-1.845-1.29h-1.658zm0 6.956h2.29c.57 0 1.031-.13 1.384-.393.353-.262.53-.644.53-1.145 0-1.094-.638-1.64-1.914-1.64h-2.29z"/><path id="mci6u" d="M1450.227 195.082h-6.956v-13.074h-5.28v7.615c0 2.03-.413 3.536-1.239 4.517-.827.98-2.094 1.472-3.803 1.472-1.937 0-3.674-.177-5.212-.53v-5.144c.82.25 1.447.376 1.88.376.934 0 1.401-.696 1.401-2.087v-11.294h19.21z"/><path id="mci6v" d="M1474.58 187.734h-13.945c.125 1.116.427 1.948.906 2.495.672.786 1.55 1.179 2.631 1.179.684 0 1.333-.171 1.95-.513.375-.216.78-.598 1.212-1.145l6.853.632c-1.048 1.824-2.313 3.13-3.794 3.923-1.48.79-3.606 1.187-6.374 1.187-2.405 0-4.296-.34-5.674-1.016-1.379-.678-2.52-1.755-3.427-3.231-.905-1.475-1.358-3.21-1.358-5.203 0-2.837.908-5.133 2.725-6.888 1.818-1.754 4.327-2.631 7.53-2.631 2.596 0 4.647.393 6.151 1.179a7.962 7.962 0 0 1 3.435 3.418c.786 1.492 1.18 3.435 1.18 5.827zm-7.075-3.333c-.137-1.344-.499-2.307-1.085-2.888-.587-.581-1.359-.872-2.316-.872-1.105 0-1.988.439-2.649 1.316-.422.547-.689 1.362-.803 2.444z"/><path id="mci6w" d="M1498.284 195.082h-6.973v-6.853h-6.323v6.853h-6.973v-18.15h6.973v6.22h6.323v-6.22h6.973z"/><path id="mci6x" d="M1501.873 186.058c0-2.768.934-5.05 2.803-6.845 1.868-1.794 4.392-2.69 7.57-2.69 3.635 0 6.38 1.053 8.238 3.161 1.492 1.697 2.239 3.788 2.239 6.272 0 2.791-.926 5.078-2.777 6.861-1.852 1.784-4.413 2.675-7.682 2.675-2.917 0-5.275-.74-7.075-2.222-2.211-1.834-3.316-4.238-3.316-7.212zm6.973-.017c0 1.618.327 2.814.983 3.59.655.774 1.478 1.161 2.469 1.161 1.003 0 1.826-.38 2.469-1.145.644-.763.966-1.988.966-3.674 0-1.573-.325-2.743-.974-3.513-.65-.768-1.453-1.153-2.41-1.153-1.014 0-1.851.391-2.512 1.171s-.991 1.968-.991 3.563z"/><path id="mci6y" d="M1551.433 185.426c1.38.136 2.475.592 3.29 1.367.814.775 1.222 1.811 1.222 3.11 0 1.732-.57 3.028-1.709 3.888-1.14.861-3.184 1.29-6.135 1.29h-10.357v-18.149h11.194c2.028 0 3.574.388 4.64 1.165 1.065.776 1.598 1.86 1.598 3.253 0 .982-.348 1.835-1.042 2.56-.696.725-1.596 1.208-2.7 1.447zm-6.733-1.573h1.76c1.162 0 1.743-.532 1.743-1.598 0-.86-.615-1.29-1.845-1.29h-1.658zm0 6.956h2.29c.57 0 1.031-.13 1.384-.393.353-.262.53-.644.53-1.145 0-1.094-.638-1.64-1.914-1.64h-2.29z"/><path id="mci6z" d="M1584.485 187.972l6.614.752c-.365 1.38-.963 2.573-1.795 3.58-.832 1.01-1.894 1.793-3.187 2.35-1.293.559-2.937.839-4.93.839-1.926 0-3.53-.18-4.81-.538-1.283-.359-2.385-.94-3.308-1.743a8.774 8.774 0 0 1-2.17-2.824c-.525-1.082-.787-2.516-.787-4.304 0-1.866.32-3.42.957-4.661a8.434 8.434 0 0 1 1.915-2.45c.808-.723 1.64-1.261 2.495-1.614 1.355-.557 3.093-.836 5.212-.836 2.962 0 5.221.53 6.776 1.589 1.556 1.06 2.646 2.61 3.273 4.649l-6.546.87c-.205-.773-.578-1.357-1.119-1.751-.54-.392-1.268-.59-2.179-.59-1.15 0-2.082.413-2.794 1.238-.712.824-1.068 2.072-1.068 3.744 0 1.49.353 2.622 1.06 3.395.705.773 1.606 1.16 2.7 1.16.911 0 1.677-.233 2.298-.701.621-.466 1.085-1.184 1.393-2.153z"/><path id="mci6A" d="M1615.144 195.082h-6.956v-13.074h-5.28v7.615c0 2.03-.413 3.536-1.239 4.517-.827.98-2.094 1.472-3.803 1.472-1.937 0-3.674-.177-5.212-.53v-5.144c.82.25 1.447.376 1.88.376.934 0 1.401-.696 1.401-2.087v-11.294h19.21z"/><path id="mci6B" d="M1618.494 186.058c0-2.768.934-5.05 2.803-6.845 1.868-1.794 4.392-2.69 7.57-2.69 3.635 0 6.38 1.053 8.238 3.161 1.492 1.697 2.239 3.788 2.239 6.272 0 2.791-.926 5.078-2.777 6.861-1.852 1.784-4.413 2.675-7.682 2.675-2.917 0-5.275-.74-7.075-2.222-2.211-1.834-3.316-4.238-3.316-7.212zm6.973-.017c0 1.618.327 2.814.983 3.59.655.774 1.478 1.161 2.469 1.161 1.003 0 1.826-.38 2.469-1.145.644-.763.966-1.988.966-3.674 0-1.573-.325-2.743-.974-3.513-.65-.768-1.453-1.153-2.41-1.153-1.014 0-1.851.391-2.512 1.171s-.991 1.968-.991 3.563z"/><path id="mci6C" d="M1656.382 185.426c1.379.136 2.475.592 3.29 1.367.814.775 1.222 1.811 1.222 3.11 0 1.732-.57 3.028-1.71 3.888-1.14.861-3.183 1.29-6.134 1.29h-10.357v-18.149h11.194c2.028 0 3.574.388 4.64 1.165 1.065.776 1.598 1.86 1.598 3.253 0 .982-.348 1.835-1.042 2.56-.696.725-1.596 1.208-2.701 1.447zm-6.733-1.573h1.76c1.162 0 1.743-.532 1.743-1.598 0-.86-.615-1.29-1.845-1.29h-1.658zm0 6.956h2.29c.569 0 1.03-.13 1.384-.393.353-.262.53-.644.53-1.145 0-1.094-.638-1.64-1.914-1.64h-2.29z"/><path id="mci6D" d="M1670.566 182.812l-6.648-.701c.252-1.162.614-2.077 1.087-2.743.471-.667 1.152-1.244 2.041-1.734.637-.353 1.515-.627 2.632-.821a21.288 21.288 0 0 1 3.623-.29c2.086 0 3.76.117 5.025.35 1.264.234 2.317.72 3.161 1.46.592.514 1.06 1.24 1.401 2.18.343.94.514 1.837.514 2.692v8.015c0 .854.052 1.524.161 2.008.108.485.345 1.102.71 1.854h-6.528c-.262-.467-.433-.822-.513-1.068-.08-.245-.16-.63-.24-1.153-.911.877-1.816 1.504-2.716 1.879-1.232.5-2.662.752-4.29.752-2.166 0-3.809-.501-4.93-1.503-1.124-1.003-1.685-2.24-1.685-3.71 0-1.377.405-2.511 1.214-3.4.808-.89 2.301-1.55 4.477-1.982 2.61-.524 4.302-.891 5.077-1.103.774-.21 1.595-.487 2.46-.828 0-.855-.176-1.453-.53-1.795-.352-.342-.973-.513-1.862-.513-1.14 0-1.995.183-2.564.547-.444.285-.803.82-1.077 1.607zm6.034 3.657a32.65 32.65 0 0 1-2.991.906c-1.413.376-2.307.746-2.683 1.11-.388.377-.581.804-.581 1.282 0 .547.19.994.573 1.342.38.348.942.52 1.683.52.774 0 1.496-.187 2.162-.563.667-.376 1.139-.834 1.419-1.375.278-.541.418-1.245.418-2.111z"/><path id="mci6E" d="M1687.605 201.986v-25.054h6.512v2.683c.899-1.128 1.726-1.89 2.478-2.29 1.013-.535 2.136-.803 3.366-.803 2.427 0 4.304.93 5.631 2.786 1.327 1.857 1.991 4.152 1.991 6.887 0 3.02-.723 5.323-2.17 6.913-1.447 1.59-3.276 2.384-5.486 2.384-1.071 0-2.048-.183-2.931-.547a6.985 6.985 0 0 1-2.367-1.624v8.665zm6.973-15.928c0 1.436.302 2.501.906 3.196.603.695 1.367 1.042 2.29 1.042.808 0 1.487-.333 2.033-1 .547-.666.821-1.797.821-3.392 0-1.47-.285-2.549-.855-3.239-.57-.689-1.264-1.033-2.085-1.033-.888 0-1.629.347-2.221 1.042-.593.696-.889 1.823-.889 3.384z"/><path id="mci6F" d="M1718.128 183.392h3.179c5.366 0 8.049 1.96 8.049 5.88 0 3.873-2.615 5.81-7.844 5.81h-10.357v-18.15h6.973zm0 7.417h2.273c.569 0 1.034-.13 1.393-.393.359-.262.538-.644.538-1.145 0-1.094-.644-1.64-1.931-1.64h-2.273z"/><path id="mci6G" d="M1732.671 170.028h7.434v5.708l-1.435 11.467h-4.597l-1.402-11.467zm.259 25.052v-6.13h6.94v6.13z"/><path id="mci6H" d="M1284.336 212.028h10.181l3.927 15.244 3.898-15.244h10.175v25.054h-6.34v-19.107l-4.885 19.107h-5.74l-4.876-19.107v19.107h-6.34z"/><path id="mci6I" d="M1316.14 228.058c0-2.768.934-5.05 2.803-6.845 1.868-1.794 4.392-2.69 7.571-2.69 3.634 0 6.38 1.053 8.237 3.161 1.492 1.697 2.24 3.788 2.24 6.272 0 2.791-.927 5.078-2.778 6.861-1.852 1.784-4.413 2.675-7.682 2.675-2.917 0-5.275-.74-7.075-2.222-2.21-1.834-3.316-4.238-3.316-7.212zm6.973-.017c0 1.618.327 2.814.983 3.59.655.774 1.478 1.161 2.47 1.161 1.002 0 1.825-.38 2.468-1.145.644-.763.966-1.988.966-3.674 0-1.573-.325-2.743-.974-3.513-.649-.768-1.453-1.153-2.41-1.153-1.014 0-1.85.391-2.512 1.171-.66.78-.99 1.968-.99 3.563z"/><path id="mci6J" d="M1370.4 237.082h-7.843l-2.444-5.007c-.4-.832-.738-1.342-1.017-1.53-.28-.188-.687-.282-1.222-.282v6.819h-6.973v-6.82c-.524 0-.925.092-1.204.275-.28.182-.624.695-1.034 1.538l-2.444 5.007h-7.844l3.076-5.452c.82-1.458 1.526-2.423 2.119-2.897.592-.472 1.498-.76 2.717-.862-.604-.114-1.111-.342-1.521-.684-.41-.342-.837-.923-1.282-1.743-.444-.82-.911-1.325-1.401-1.512-.49-.19-1.236-.283-2.24-.283h-.306v-4.94c2.38 0 4.087.102 5.118.3 1.03.2 1.829.61 2.392 1.23.565.622 1.108 1.525 1.633 2.71.524 1.185.894 1.894 1.11 2.127.217.234.587.374 1.11.419v-6.562h6.974v6.562c.524-.045.894-.185 1.11-.42.217-.232.587-.941 1.112-2.126.524-1.185 1.068-2.088 1.632-2.71.564-.62 1.364-1.03 2.4-1.23 1.038-.198 2.747-.3 5.128-.3v4.94h-.325c-.991 0-1.734.094-2.23.283-.495.187-.966.692-1.41 1.512-.444.82-.871 1.4-1.282 1.743-.41.342-.917.57-1.521.684 1.163.102 2.043.37 2.64.803.599.433 1.33 1.418 2.197 2.956z"/><path id="mci6K" d="M1392.822 229.734h-13.945c.125 1.116.427 1.948.906 2.495.672.786 1.55 1.179 2.631 1.179.684 0 1.333-.171 1.95-.513.375-.216.78-.598 1.212-1.145l6.853.632c-1.048 1.824-2.313 3.13-3.794 3.923-1.48.79-3.606 1.187-6.374 1.187-2.405 0-4.296-.34-5.674-1.016-1.379-.678-2.52-1.755-3.427-3.231-.905-1.475-1.358-3.21-1.358-5.203 0-2.837.908-5.133 2.725-6.888 1.818-1.754 4.327-2.631 7.53-2.631 2.596 0 4.647.393 6.151 1.179a7.962 7.962 0 0 1 3.435 3.418c.786 1.492 1.18 3.435 1.18 5.827zm-7.075-3.333c-.137-1.344-.499-2.307-1.085-2.888-.587-.581-1.359-.872-2.316-.872-1.105 0-1.988.439-2.649 1.316-.422.547-.689 1.362-.803 2.444z"/><path id="mci6L" d="M1424.576 237.082h-28.66v-18.15h6.956v13.074h3.896v-13.073h6.956v13.073h3.879v-13.073h6.973z"/><path id="mci6M" d="M1436.453 225.392h3.179c5.366 0 8.049 1.96 8.049 5.88 0 3.873-2.615 5.81-7.844 5.81h-10.357v-18.15h6.973zm0 7.417h2.273c.569 0 1.034-.13 1.393-.393.359-.262.538-.644.538-1.145 0-1.094-.644-1.64-1.931-1.64h-2.273z"/><path id="mci6N" d="M1476.187 229.972l6.614.752c-.365 1.38-.963 2.573-1.795 3.58-.832 1.01-1.894 1.793-3.187 2.35-1.293.559-2.937.839-4.93.839-1.926 0-3.53-.18-4.811-.538-1.282-.359-2.384-.94-3.307-1.743a8.774 8.774 0 0 1-2.17-2.824c-.525-1.082-.787-2.516-.787-4.304 0-1.866.319-3.42.957-4.661a8.434 8.434 0 0 1 1.915-2.45c.808-.723 1.64-1.261 2.495-1.614 1.355-.557 3.093-.836 5.212-.836 2.962 0 5.22.53 6.776 1.589 1.556 1.06 2.646 2.61 3.273 4.649l-6.546.87c-.205-.773-.578-1.357-1.12-1.751-.54-.392-1.267-.59-2.178-.59-1.151 0-2.082.413-2.794 1.238-.712.824-1.068 2.072-1.068 3.744 0 1.49.353 2.622 1.059 3.395.706.773 1.607 1.16 2.7 1.16.912 0 1.678-.233 2.299-.701.62-.466 1.085-1.184 1.393-2.153z"/><path id="mci6O" d="M1486.03 243.986v-25.054h6.512v2.683c.9-1.128 1.726-1.89 2.478-2.29 1.013-.535 2.136-.803 3.366-.803 2.427 0 4.304.93 5.631 2.786 1.327 1.857 1.991 4.152 1.991 6.887 0 3.02-.723 5.323-2.17 6.913-1.447 1.59-3.276 2.384-5.486 2.384-1.07 0-2.048-.183-2.93-.547a6.985 6.985 0 0 1-2.368-1.624v8.665zm6.973-15.928c0 1.436.302 2.501.906 3.196.603.695 1.367 1.042 2.29 1.042.808 0 1.487-.333 2.033-1 .547-.666.821-1.797.821-3.392 0-1.47-.285-2.549-.855-3.239-.57-.689-1.264-1.033-2.085-1.033-.888 0-1.629.347-2.22 1.042-.594.696-.89 1.823-.89 3.384z"/><path id="mci6P" d="M1515.681 224.812l-6.648-.701c.251-1.162.613-2.077 1.086-2.743.472-.667 1.153-1.244 2.042-1.734.637-.353 1.515-.627 2.632-.821a21.288 21.288 0 0 1 3.623-.29c2.085 0 3.76.117 5.024.35 1.265.234 2.318.72 3.162 1.46.592.514 1.06 1.24 1.401 2.18.342.94.513 1.837.513 2.692v8.015c0 .854.053 1.524.162 2.008.108.485.345 1.102.71 1.854h-6.529c-.262-.467-.433-.822-.513-1.068-.08-.245-.159-.63-.239-1.153-.912.877-1.817 1.504-2.717 1.879-1.23.5-2.66.752-4.29.752-2.165 0-3.808-.501-4.93-1.503-1.123-1.003-1.684-2.24-1.684-3.71 0-1.377.405-2.511 1.214-3.4.808-.89 2.301-1.55 4.477-1.982 2.61-.524 4.301-.891 5.076-1.103.774-.21 1.595-.487 2.461-.828 0-.855-.177-1.453-.53-1.795-.353-.342-.974-.513-1.863-.513-1.139 0-1.994.183-2.563.547-.444.285-.803.82-1.077 1.607zm6.033 3.657a32.65 32.65 0 0 1-2.99.906c-1.414.376-2.308.746-2.684 1.11-.388.377-.58.804-.58 1.282 0 .547.19.994.572 1.342.381.348.942.52 1.683.52.774 0 1.496-.187 2.162-.563.667-.376 1.14-.834 1.42-1.375.277-.541.417-1.245.417-2.111z"/><path id="mci6Q" d="M1549.485 227.682c1.082.342 1.942.875 2.581 1.598.637.724.957 1.524.957 2.401 0 1.892-.906 3.333-2.718 4.324-1.81.991-4.455 1.487-7.929 1.487-2.917 0-5.21-.539-6.879-1.616-1.669-1.076-2.874-2.696-3.615-4.86l6.614-.736c.228.638.698 1.205 1.41 1.7.712.496 1.524.744 2.435.744 2.336 0 3.504-.582 3.504-1.744 0-.398-.222-.72-.667-.965-.444-.245-1.025-.368-1.743-.368h-3.025v-3.57h3.094c.603 0 1.156-.126 1.657-.377.501-.25.752-.57.752-.957 0-.433-.293-.787-.88-1.06s-1.404-.41-2.452-.41c-1.026 0-1.892.214-2.598.64-.706.428-1.157.938-1.35 1.53l-6.409-.87c.627-2.063 1.772-3.587 3.435-4.573 1.663-.985 3.96-1.478 6.888-1.478 3.042 0 5.425.495 7.152 1.487 1.725.991 2.59 2.244 2.59 3.76 0 1.823-.936 3.127-2.804 3.913z"/><path id="mci6R" d="M1554.424 218.932h7.34l3.743 12.083 3.477-12.083h6.854l-7.2 19.393c-.82 2.211-1.658 3.705-2.512 4.48-1.207 1.095-3.047 1.642-5.518 1.642-1.002 0-2.55-.137-4.646-.41l-.547-4.854c1.002.32 2.117.48 3.347.48.82 0 1.482-.189 1.99-.565.505-.377.935-1.05 1.288-2.02z"/><path id="mci6S" d="M1608.548 237.082h-6.973V230.4a10.905 10.905 0 0 1-5.691 1.572c-4.363 0-6.545-2.327-6.545-6.982v-6.057h6.956v4.984c0 .822.188 1.467.564 1.936.376.468.899.702 1.572.702 1.299 0 2.346-.531 3.144-1.593v-6.03h6.973z"/><path id="mci6T" d="M1632.798 229.734h-13.945c.125 1.116.427 1.948.906 2.495.672.786 1.549 1.179 2.631 1.179.684 0 1.333-.171 1.949-.513.376-.216.78-.598 1.213-1.145l6.853.632c-1.048 1.824-2.313 3.13-3.794 3.923-1.481.79-3.606 1.187-6.374 1.187-2.405 0-4.296-.34-5.674-1.016-1.379-.678-2.521-1.755-3.427-3.231-.905-1.475-1.358-3.21-1.358-5.203 0-2.837.908-5.133 2.725-6.888 1.818-1.754 4.327-2.631 7.529-2.631 2.597 0 4.648.393 6.152 1.179a7.962 7.962 0 0 1 3.435 3.418c.786 1.492 1.179 3.435 1.179 5.827zm-7.075-3.333c-.137-1.344-.499-2.307-1.085-2.888-.587-.581-1.359-.872-2.316-.872-1.105 0-1.988.439-2.649 1.316-.422.547-.689 1.362-.803 2.444z"/><path id="mci6U" d="M1656.194 237.082h-7.85l-2.653-5.012c-.422-.795-.837-1.296-1.242-1.5-.406-.205-.906-.307-1.5-.307v6.819h-6.955v-18.15h6.955v6.563c.57-.057.992-.245 1.265-.564.273-.32.67-1.02 1.188-2.102.518-1.082.982-1.874 1.393-2.375.41-.501.934-.877 1.572-1.128.638-.251 1.435-.411 2.392-.48.957-.067 2.381-.101 4.273-.101v4.939h-.308c-.934 0-1.646.037-2.136.11-.49.075-.883.23-1.179.47-.297.24-.638.73-1.026 1.47-.387.74-.709 1.256-.965 1.547-.257.29-.636.487-1.137.59.97.09 1.715.299 2.24.623.523.325 1.315 1.37 2.375 3.136z"/><path id="mci6V" d="M1678.975 237.082h-6.973v-6.853h-6.323v6.853h-6.973v-18.15h6.973v6.22h6.323v-6.22h6.973z"/><path id="mci6W" d="M1681.419 218.932h7.339l3.744 12.083 3.477-12.083h6.854l-7.201 19.393c-.82 2.211-1.657 3.705-2.511 4.48-1.207 1.095-3.047 1.642-5.518 1.642-1.002 0-2.551-.137-4.646-.41l-.547-4.854c1.002.32 2.117.48 3.347.48.819 0 1.482-.189 1.989-.565.506-.377.936-1.05 1.289-2.02z"/><path id="mci6X" d="M1720.093 224.008h-5.042v13.074h-6.972v-13.074h-5.042v-5.076h17.056z"/><path id="mci6Y" d="M1729.783 225.392h3.18c5.365 0 8.048 1.96 8.048 5.88 0 3.873-2.615 5.81-7.844 5.81h-10.357v-18.15h6.973zm0 7.417h2.273c.57 0 1.034-.13 1.393-.393.36-.262.538-.644.538-1.145 0-1.094-.644-1.64-1.93-1.64h-2.274z"/><path id="mci6Z" d="M1248.806 271.734h-13.945c.125 1.116.427 1.948.906 2.495.672.786 1.55 1.179 2.631 1.179.684 0 1.333-.171 1.95-.513.375-.216.78-.598 1.212-1.145l6.853.632c-1.048 1.824-2.313 3.13-3.794 3.923-1.48.79-3.606 1.187-6.374 1.187-2.405 0-4.296-.34-5.674-1.016-1.379-.678-2.52-1.755-3.427-3.231-.905-1.475-1.358-3.21-1.358-5.203 0-2.837.908-5.133 2.725-6.888 1.818-1.754 4.327-2.631 7.53-2.631 2.596 0 4.647.393 6.151 1.179a7.962 7.962 0 0 1 3.435 3.418c.786 1.492 1.18 3.435 1.18 5.827zm-7.075-3.333c-.137-1.344-.499-2.307-1.085-2.888-.587-.581-1.359-.872-2.316-.872-1.105 0-1.988.439-2.649 1.316-.422.547-.689 1.362-.803 2.444z"/><path id="mci6aa" d="M1266.939 266.008h-7.725v13.074h-6.972v-18.15h14.697z"/><path id="mci6ab" d="M1268.92 270.058c0-2.768.935-5.05 2.804-6.845 1.868-1.794 4.392-2.69 7.57-2.69 3.635 0 6.38 1.053 8.238 3.161 1.492 1.697 2.239 3.788 2.239 6.272 0 2.791-.926 5.078-2.777 6.861-1.852 1.784-4.413 2.675-7.682 2.675-2.917 0-5.275-.74-7.075-2.222-2.211-1.834-3.316-4.238-3.316-7.212zm6.974-.017c0 1.618.327 2.814.983 3.59.655.774 1.478 1.161 2.469 1.161 1.003 0 1.826-.38 2.469-1.145.644-.763.966-1.988.966-3.674 0-1.573-.325-2.743-.974-3.513-.65-.768-1.453-1.153-2.41-1.153-1.014 0-1.851.391-2.512 1.171s-.991 1.968-.991 3.563z"/><path id="mci6ac" d="M1318.481 269.426c1.38.136 2.475.592 3.29 1.367.814.775 1.222 1.811 1.222 3.11 0 1.732-.57 3.028-1.709 3.888-1.14.861-3.184 1.29-6.135 1.29h-10.357v-18.149h11.194c2.028 0 3.574.388 4.64 1.165 1.065.776 1.598 1.86 1.598 3.253 0 .982-.348 1.835-1.042 2.56-.696.725-1.596 1.208-2.7 1.447zm-6.733-1.573h1.76c1.162 0 1.743-.532 1.743-1.598 0-.86-.615-1.29-1.845-1.29h-1.658zm0 6.956h2.29c.57 0 1.031-.13 1.384-.393.353-.262.53-.644.53-1.145 0-1.094-.638-1.64-1.914-1.64h-2.29z"/><path id="mci6ad" d="M1358.506 279.082h-6.973v-6.853h-6.323v6.853h-6.973v-18.15h6.973v6.22h6.323v-6.22h6.973z"/><path id="mci6ae" d="M1369.29 266.812l-6.648-.701c.25-1.162.613-2.077 1.086-2.743.472-.667 1.153-1.244 2.042-1.734.637-.353 1.515-.627 2.632-.821a21.288 21.288 0 0 1 3.623-.29c2.085 0 3.759.117 5.024.35 1.265.234 2.318.72 3.162 1.46.592.514 1.059 1.24 1.4 2.18.343.94.514 1.837.514 2.692v8.015c0 .854.053 1.524.162 2.008.108.485.345 1.102.709 1.854h-6.528c-.262-.467-.433-.822-.513-1.068-.08-.245-.16-.63-.24-1.153-.911.877-1.816 1.504-2.716 1.879-1.231.5-2.661.752-4.29.752-2.165 0-3.808-.501-4.93-1.503-1.123-1.003-1.684-2.24-1.684-3.71 0-1.377.405-2.511 1.214-3.4.808-.89 2.3-1.55 4.477-1.982 2.609-.524 4.3-.891 5.076-1.103.774-.21 1.595-.487 2.46-.828 0-.855-.176-1.453-.53-1.795-.352-.342-.973-.513-1.862-.513-1.14 0-1.994.183-2.563.547-.444.285-.803.82-1.077 1.607zm6.033 3.657a32.65 32.65 0 0 1-2.991.906c-1.413.376-2.307.746-2.683 1.11-.388.377-.581.804-.581 1.282 0 .547.19.994.573 1.342.38.348.942.52 1.683.52.774 0 1.496-.187 2.162-.563.667-.376 1.139-.834 1.419-1.375.278-.541.418-1.245.418-2.111z"/><path id="mci6af" d="M1414.851 279.082h-28.66v-18.15h6.956v13.074h3.896v-13.073H1404v13.073h3.88v-13.073h6.972z"/><path id="mci6ag" d="M1439.666 271.734h-13.945c.125 1.116.427 1.948.906 2.495.672.786 1.549 1.179 2.63 1.179.685 0 1.334-.171 1.95-.513.376-.216.78-.598 1.213-1.145l6.853.632c-1.048 1.824-2.313 3.13-3.794 3.923-1.481.79-3.606 1.187-6.374 1.187-2.405 0-4.296-.34-5.674-1.016-1.38-.678-2.521-1.755-3.427-3.231-.905-1.475-1.358-3.21-1.358-5.203 0-2.837.908-5.133 2.725-6.888 1.818-1.754 4.327-2.631 7.529-2.631 2.597 0 4.648.393 6.152 1.179a7.962 7.962 0 0 1 3.435 3.418c.786 1.492 1.179 3.435 1.179 5.827zm-7.075-3.333c-.137-1.344-.5-2.307-1.085-2.888-.587-.581-1.36-.872-2.316-.872-1.105 0-1.988.439-2.65 1.316-.421.547-.688 1.362-.802 2.444z"/><path id="mci6ah" d="M1468.018 279.082h-5.88v-11.393l-4.293 11.393h-4.19l-4.675-11.393v11.393h-5.88v-18.15h8.299l4.357 10.435 3.969-10.434h8.293z"/><path id="mci6ai" d="M1503.257 262.761c1.39-1.492 3.162-2.239 5.315-2.239 2.336 0 4.193.904 5.572 2.709 1.378 1.806 2.068 4.156 2.068 7.05 0 2.802-.69 5.039-2.068 6.707-1.38 1.67-3.247 2.504-5.606 2.504-2.233 0-3.993-.723-5.281-2.17v8.698h-6.955v-8.664c-1.46 1.424-3.236 2.136-5.332 2.136-2.324 0-4.176-.903-5.554-2.709-1.38-1.805-2.068-4.161-2.068-7.066 0-2.803.689-5.036 2.068-6.7 1.378-1.663 3.24-2.495 5.588-2.495 2.222 0 3.987.769 5.298 2.307v-8.801h6.955zm-7.801 10.604c.609-.655.914-1.803.914-3.443 0-1.219-.273-2.233-.82-3.042-.547-.809-1.35-1.214-2.41-1.214-.9 0-1.598.379-2.093 1.137-.496.758-.744 1.774-.744 3.05 0 2.997.98 4.495 2.94 4.495.866 0 1.603-.327 2.213-.983zm13.048-.162c.49-.763.735-1.783.735-3.059 0-2.985-.98-4.478-2.94-4.478-.854 0-1.586.325-2.195.974-.61.65-.915 1.795-.915 3.436 0 1.219.274 2.236.82 3.05.547.815 1.345 1.222 2.393 1.222.91 0 1.612-.381 2.102-1.145z"/><path id="mci6aj" d="M1540.462 279.082h-6.956v-13.074h-5.28v7.615c0 2.03-.413 3.536-1.24 4.517-.826.98-2.093 1.472-3.802 1.472-1.937 0-3.674-.177-5.212-.53v-5.144c.82.25 1.447.376 1.88.376.934 0 1.4-.696 1.4-2.087v-11.294h19.21z"/><path id="mci6ak" d="M1564.815 271.734h-13.945c.125 1.116.427 1.948.906 2.495.672.786 1.549 1.179 2.63 1.179.685 0 1.334-.171 1.95-.513.376-.216.78-.598 1.213-1.145l6.853.632c-1.048 1.824-2.313 3.13-3.794 3.923-1.481.79-3.606 1.187-6.374 1.187-2.405 0-4.296-.34-5.674-1.016-1.38-.678-2.521-1.755-3.427-3.231-.905-1.475-1.358-3.21-1.358-5.203 0-2.837.908-5.133 2.725-6.888 1.818-1.754 4.327-2.631 7.529-2.631 2.597 0 4.648.393 6.152 1.179a7.962 7.962 0 0 1 3.435 3.418c.786 1.492 1.179 3.435 1.179 5.827zm-7.075-3.333c-.137-1.344-.5-2.307-1.085-2.888-.587-.581-1.36-.872-2.316-.872-1.105 0-1.988.439-2.65 1.316-.421.547-.688 1.362-.802 2.444z"/><path id="mci6al" d="M1588.21 279.082h-7.85l-2.652-5.012c-.422-.795-.837-1.296-1.242-1.5-.406-.205-.906-.307-1.5-.307v6.819h-6.955v-18.15h6.955v6.563c.57-.057.992-.245 1.265-.564.273-.32.669-1.02 1.188-2.102.518-1.082.982-1.874 1.393-2.375.41-.501.934-.877 1.572-1.128.638-.251 1.435-.411 2.392-.48.957-.067 2.38-.101 4.273-.101v4.939h-.308c-.934 0-1.646.037-2.136.11-.49.075-.883.23-1.18.47-.296.24-.637.73-1.025 1.47-.387.74-.71 1.256-.965 1.547-.257.29-.636.487-1.137.59.969.09 1.715.299 2.239.623.524.325 1.316 1.37 2.376 3.136z"/><path id="mci6am" d="M1604.019 271.973l6.614.752c-.365 1.379-.963 2.572-1.795 3.58-.832 1.009-1.894 1.792-3.187 2.35s-2.937.838-4.93.838c-1.926 0-3.53-.18-4.811-.538-1.282-.358-2.384-.94-3.307-1.742a8.774 8.774 0 0 1-2.17-2.825c-.525-1.082-.787-2.516-.787-4.304 0-1.866.319-3.42.957-4.661a8.434 8.434 0 0 1 1.915-2.45c.808-.723 1.64-1.261 2.495-1.614 1.355-.557 3.093-.836 5.212-.836 2.962 0 5.22.53 6.776 1.589 1.556 1.06 2.646 2.61 3.273 4.649l-6.546.87c-.205-.773-.578-1.357-1.12-1.751-.54-.392-1.267-.59-2.178-.59-1.151 0-2.082.413-2.794 1.238-.712.824-1.068 2.072-1.068 3.744 0 1.49.353 2.622 1.059 3.395.706.773 1.607 1.16 2.7 1.16.912 0 1.678-.233 2.299-.701.62-.466 1.085-1.184 1.393-2.153z"/><path id="mci6an" d="M1634.097 279.082h-6.58v-8.93l-6.827 8.93h-6.622v-18.15h6.579v9.049l6.897-9.048h6.553z"/><path id="mci6ao" d="M1658.74 279.082h-7.85l-2.652-5.012c-.422-.795-.837-1.296-1.242-1.5-.406-.205-.906-.307-1.5-.307v6.819h-6.955v-18.15h6.955v6.563c.57-.057.992-.245 1.265-.564.273-.32.669-1.02 1.188-2.102.518-1.082.982-1.874 1.393-2.375.41-.501.934-.877 1.572-1.128.638-.251 1.435-.411 2.392-.48.957-.067 2.38-.101 4.273-.101v4.939h-.308c-.934 0-1.646.037-2.136.11-.49.075-.883.23-1.18.47-.296.24-.637.73-1.025 1.47-.387.74-.71 1.256-.965 1.547-.257.29-.636.487-1.137.59.969.09 1.715.299 2.239.623.524.325 1.316 1.37 2.376 3.136z"/><path id="mci6ap" d="M1660.159 270.058c0-2.768.934-5.05 2.803-6.845 1.868-1.794 4.392-2.69 7.57-2.69 3.635 0 6.38 1.053 8.238 3.161 1.492 1.697 2.239 3.788 2.239 6.272 0 2.791-.926 5.078-2.777 6.861-1.852 1.784-4.413 2.675-7.682 2.675-2.917 0-5.275-.74-7.075-2.222-2.211-1.834-3.316-4.238-3.316-7.212zm6.973-.017c0 1.618.327 2.814.983 3.59.655.774 1.478 1.161 2.469 1.161 1.003 0 1.826-.38 2.469-1.145.644-.763.966-1.988.966-3.674 0-1.573-.325-2.743-.974-3.513-.65-.768-1.453-1.153-2.41-1.153-1.014 0-1.851.391-2.512 1.171s-.991 1.968-.991 3.563z"/><path id="mci6aq" d="M1704.866 279.082h-6.973v-6.853h-6.323v6.853h-6.973v-18.15h6.973v6.22h6.323v-6.22h6.973z"/><path id="mci6ar" d="M1729.458 271.734h-13.945c.125 1.116.427 1.948.906 2.495.672.786 1.55 1.179 2.631 1.179.684 0 1.333-.171 1.95-.513.375-.216.78-.598 1.212-1.145l6.853.632c-1.048 1.824-2.313 3.13-3.794 3.923-1.48.79-3.606 1.187-6.374 1.187-2.405 0-4.296-.34-5.674-1.016-1.379-.678-2.52-1.755-3.427-3.231-.905-1.475-1.358-3.21-1.358-5.203 0-2.837.908-5.133 2.725-6.888 1.818-1.754 4.327-2.631 7.53-2.631 2.596 0 4.647.393 6.151 1.179a7.962 7.962 0 0 1 3.435 3.418c.786 1.492 1.18 3.435 1.18 5.827zm-7.075-3.333c-.137-1.344-.499-2.307-1.085-2.888-.587-.581-1.359-.872-2.316-.872-1.105 0-1.988.439-2.649 1.316-.422.547-.689 1.362-.803 2.444z"/><path id="mci6as" d="M1732.671 254.028h7.434v5.708l-1.435 11.467h-4.597l-1.402-11.467zm.259 25.052v-6.13h6.94v6.13z"/></defs><g><g transform="translate(-1227 -128)"><use fill="#fff" xlink:href="#mci6a"/></g><g transform="translate(-1227 -128)"><use fill="#fff" xlink:href="#mci6b"/></g><g transform="translate(-1227 -128)"><use fill="#fff" xlink:href="#mci6c"/></g><g transform="translate(-1227 -128)"><use fill="#fff" xlink:href="#mci6d"/></g><g transform="translate(-1227 -128)"><use fill="#fff" xlink:href="#mci6e"/></g><g transform="translate(-1227 -128)"><use fill="#fff" xlink:href="#mci6f"/></g><g transform="translate(-1227 -128)"><use fill="#fff" xlink:href="#mci6g"/></g><g transform="translate(-1227 -128)"><use fill="#fff" xlink:href="#mci6h"/></g><g transform="translate(-1227 -128)"><use fill="#fff" xlink:href="#mci6i"/></g><g transform="translate(-1227 -128)"><use fill="#fff" xlink:href="#mci6j"/></g><g transform="translate(-1227 -128)"><use fill="#fff" xlink:href="#mci6k"/></g><g transform="translate(-1227 -128)"><use fill="#fff" xlink:href="#mci6l"/></g><g transform="translate(-1227 -128)"><use fill="#fff" xlink:href="#mci6m"/></g><g transform="translate(-1227 -128)"><use fill="#fff" xlink:href="#mci6n"/></g><g transform="translate(-1227 -128)"><use fill="#fff" xlink:href="#mci6o"/></g><g transform="translate(-1227 -128)"><use fill="#fff" xlink:href="#mci6p"/></g><g transform="translate(-1227 -128)"><use fill="#fff" xlink:href="#mci6q"/></g><g transform="translate(-1227 -128)"><use fill="#fff" xlink:href="#mci6r"/></g><g transform="translate(-1227 -128)"><use fill="#fff" xlink:href="#mci6s"/></g><g transform="translate(-1227 -128)"><use fill="#fff" xlink:href="#mci6t"/></g><g transform="translate(-1227 -128)"><use fill="#fff" xlink:href="#mci6u"/></g><g transform="translate(-1227 -128)"><use fill="#fff" xlink:href="#mci6v"/></g><g transform="translate(-1227 -128)"><use fill="#fff" xlink:href="#mci6w"/></g><g transform="translate(-1227 -128)"><use fill="#fff" xlink:href="#mci6x"/></g><g transform="translate(-1227 -128)"><use fill="#fff" xlink:href="#mci6y"/></g><g transform="translate(-1227 -128)"><use fill="#fff" xlink:href="#mci6z"/></g><g transform="translate(-1227 -128)"><use fill="#fff" xlink:href="#mci6A"/></g><g transform="translate(-1227 -128)"><use fill="#fff" xlink:href="#mci6B"/></g><g transform="translate(-1227 -128)"><use fill="#fff" xlink:href="#mci6C"/></g><g transform="translate(-1227 -128)"><use fill="#fff" xlink:href="#mci6D"/></g><g transform="translate(-1227 -128)"><use fill="#fff" xlink:href="#mci6E"/></g><g transform="translate(-1227 -128)"><use fill="#fff" xlink:href="#mci6F"/></g><g transform="translate(-1227 -128)"><use fill="#fff" xlink:href="#mci6G"/></g><g transform="translate(-1227 -128)"><use fill="#fff" xlink:href="#mci6H"/></g><g transform="translate(-1227 -128)"><use fill="#fff" xlink:href="#mci6I"/></g><g transform="translate(-1227 -128)"><use fill="#fff" xlink:href="#mci6J"/></g><g transform="translate(-1227 -128)"><use fill="#fff" xlink:href="#mci6K"/></g><g transform="translate(-1227 -128)"><use fill="#fff" xlink:href="#mci6L"/></g><g transform="translate(-1227 -128)"><use fill="#fff" xlink:href="#mci6M"/></g><g transform="translate(-1227 -128)"><use fill="#fff" xlink:href="#mci6N"/></g><g transform="translate(-1227 -128)"><use fill="#fff" xlink:href="#mci6O"/></g><g transform="translate(-1227 -128)"><use fill="#fff" xlink:href="#mci6P"/></g><g transform="translate(-1227 -128)"><use fill="#fff" xlink:href="#mci6Q"/></g><g transform="translate(-1227 -128)"><use fill="#fff" xlink:href="#mci6R"/></g><g transform="translate(-1227 -128)"><use fill="#fff" xlink:href="#mci6S"/></g><g transform="translate(-1227 -128)"><use fill="#fff" xlink:href="#mci6T"/></g><g transform="translate(-1227 -128)"><use fill="#fff" xlink:href="#mci6U"/></g><g transform="translate(-1227 -128)"><use fill="#fff" xlink:href="#mci6V"/></g><g transform="translate(-1227 -128)"><use fill="#fff" xlink:href="#mci6W"/></g><g transform="translate(-1227 -128)"><use fill="#fff" xlink:href="#mci6X"/></g><g transform="translate(-1227 -128)"><use fill="#fff" xlink:href="#mci6Y"/></g><g transform="translate(-1227 -128)"><use fill="#fff" xlink:href="#mci6Z"/></g><g transform="translate(-1227 -128)"><use fill="#fff" xlink:href="#mci6aa"/></g><g transform="translate(-1227 -128)"><use fill="#fff" xlink:href="#mci6ab"/></g><g transform="translate(-1227 -128)"><use fill="#fff" xlink:href="#mci6ac"/></g><g transform="translate(-1227 -128)"><use fill="#fff" xlink:href="#mci6ad"/></g><g transform="translate(-1227 -128)"><use fill="#fff" xlink:href="#mci6ae"/></g><g transform="translate(-1227 -128)"><use fill="#fff" xlink:href="#mci6af"/></g><g transform="translate(-1227 -128)"><use fill="#fff" xlink:href="#mci6ag"/></g><g transform="translate(-1227 -128)"><use fill="#fff" xlink:href="#mci6ah"/></g><g transform="translate(-1227 -128)"><use fill="#fff" xlink:href="#mci6ai"/></g><g transform="translate(-1227 -128)"><use fill="#fff" xlink:href="#mci6aj"/></g><g transform="translate(-1227 -128)"><use fill="#fff" xlink:href="#mci6ak"/></g><g transform="translate(-1227 -128)"><use fill="#fff" xlink:href="#mci6al"/></g><g transform="translate(-1227 -128)"><use fill="#fff" xlink:href="#mci6am"/></g><g transform="translate(-1227 -128)"><use fill="#fff" xlink:href="#mci6an"/></g><g transform="translate(-1227 -128)"><use fill="#fff" xlink:href="#mci6ao"/></g><g transform="translate(-1227 -128)"><use fill="#fff" xlink:href="#mci6ap"/></g><g transform="translate(-1227 -128)"><use fill="#fff" xlink:href="#mci6aq"/></g><g transform="translate(-1227 -128)"><use fill="#fff" xlink:href="#mci6ar"/></g><g transform="translate(-1227 -128)"><use fill="#fff" xlink:href="#mci6as"/></g></g></svg>