<svg xmlns="http://www.w3.org/2000/svg" xmlns:xlink="http://www.w3.org/1999/xlink" width="390" height="57" viewBox="0 0 390 57"><defs><path id="inpua" d="M100.427 154.448h41.005v13.668h-21.21v6.834h19.796v13.825h-19.796v19.56h-19.795z"/><path id="inpub" d="M147.555 154.448h20.188v39.904h21.21l-1.964 13.982h-39.434z"/><path id="inpuc" d="M234.038 187.911h-21.367v6.755h24.195l-2.121 13.668h-41.319v-53.886h41.476v13.747h-22.231v5.97h21.367z"/><path id="inpud" d="M271.268 208.334c-1.335-4.634-3.457-11.469-4.87-17.124h-.393c-1.492 5.577-3.378 11.94-5.106 17.124h-21.052l13.433-26.393-12.333-27.493h22.702c1.413 4.948 3.063 11.39 4.32 16.495h.315c1.57-5.812 3.612-12.725 4.712-16.495h20.817l-13.669 25.058 13.904 28.828z"/><path id="inpue" d="M298.37 208.34v-53.89h20.19v53.89z"/><path id="inpuf" d="M376.129 189.247c-1.571 13.197-9.505 20.502-25.451 20.502-19.952 0-25.923-13.197-25.923-28.2 0-15.396 7.306-28.514 26.55-28.514 18.854 0 24.196 11.546 24.667 20.03H356.02c-.314-4.242-1.493-6.598-4.635-6.598-3.928 0-5.5 4.085-5.5 15.082 0 10.054 1.494 14.61 5.265 14.61 3.69 0 4.634-2.985 5.027-6.912z"/><path id="inpug" d="M434.803 180.999c0 16.18-7.148 28.75-27.808 28.75-18.46 0-26.55-11.783-26.55-28.593 0-15.79 8.09-28.122 27.493-28.122 18.852 0 26.865 12.805 26.865 27.965zm-33.228-.157c0 10.369 1.1 15.475 6.127 15.475 4.949 0 5.97-4.792 5.97-15.711 0-9.74-.943-14.061-6.048-14.061-4.792 0-6.05 4.242-6.05 14.297z"/><path id="inpuh" d="M441.24 208.334v-53.886h23.094c5.263 19.323 7.227 27.1 7.62 28.75h.471c-.549-6.442-.942-16.418-.942-23.959v-4.79H490.1v53.885H467.79c-6.126-22.386-7.618-27.885-8.247-30.007h-.315c.63 6.756.55 15.711.55 24.508v5.5z"/></defs><g><g transform="translate(-100 -153)"><use fill="#d55256" xlink:href="#inpua"/></g><g transform="translate(-100 -153)"><use fill="#d55256" xlink:href="#inpub"/></g><g transform="translate(-100 -153)"><use fill="#d55256" xlink:href="#inpuc"/></g><g transform="translate(-100 -153)"><use fill="#d55256" xlink:href="#inpud"/></g><g transform="translate(-100 -153)"><use fill="#d55256" xlink:href="#inpue"/></g><g transform="translate(-100 -153)"><use fill="#d55256" xlink:href="#inpuf"/></g><g transform="translate(-100 -153)"><use fill="#d55256" xlink:href="#inpug"/></g><g transform="translate(-100 -153)"><use fill="#d55256" xlink:href="#inpuh"/></g></g></svg>