<svg xmlns="http://www.w3.org/2000/svg" xmlns:xlink="http://www.w3.org/1999/xlink" width="98" height="22" viewBox="0 0 98 22"><defs><path id="nvxoa" d="M923.12 647.042c3.334 0 6.04 1 8.12 3 2.08 2 3.12 4.615 3.12 7.84 0 3.254-1.053 5.901-3.16 7.941-2.106 2.04-4.826 3.059-8.16 3.059-3.36 0-6.093-1.013-8.2-3.04-2.106-2.025-3.16-4.652-3.16-7.88 0-3.225 1.06-5.852 3.18-7.88 2.12-2.026 4.874-3.04 8.26-3.04zm-.16 5.721c-2.24 0-3.36 1.733-3.36 5.199 0 3.494 1.147 5.24 3.44 5.24 2.267 0 3.4-1.773 3.4-5.32 0-3.413-1.16-5.119-3.48-5.119z"/><path id="nvxob" d="M959.52 647.643l-7.28 8.08 8.28 12.56h-9.24l-4.04-7-1.64 1.839v5.16h-7.88v-20.64h7.88v6.8h.12l5.12-6.8z"/><path id="nvxoc" d="M975.96 647.643h7.88v20.64h-7.56v-11h-.12l-6 11h-7.88v-20.64h7.56v10.72h.12z"/><path id="nvxod" d="M1008.32 647.643v20.64H1001v-8.12c-2.268.799-4.388 1.2-6.36 1.2-4.748 0-7.12-2.746-7.12-8.241v-5.48h7.88v4.48c0 1.387.22 2.354.66 2.9.44.548 1.152.82 2.14.82.852 0 1.6-.213 2.24-.64v-7.56z"/></defs><g><g transform="translate(-911 -647)"><use fill="#333" xlink:href="#nvxoa"/></g><g transform="translate(-911 -647)"><use fill="#333" xlink:href="#nvxob"/></g><g transform="translate(-911 -647)"><use fill="#333" xlink:href="#nvxoc"/></g><g transform="translate(-911 -647)"><use fill="#333" xlink:href="#nvxod"/></g></g></svg>