<svg xmlns="http://www.w3.org/2000/svg" xmlns:xlink="http://www.w3.org/1999/xlink" width="980" height="132" viewBox="0 0 980 132"><defs><path id="kizta" d="M505.724 473.536c-2.267 2.161-5.44 3.241-9.52 3.241v2.76h-8.56v-2.76c-3.947 0-7.107-1.087-9.48-3.26-2.374-2.174-3.56-4.953-3.56-8.34 0-1.387.246-2.727.74-4.02.493-1.293 1.24-2.494 2.24-3.6 1-1.107 2.366-1.993 4.1-2.66 1.733-.667 3.72-1 5.96-1v-2.84h8.56v2.84c4 0 7.153 1.066 9.46 3.2 2.306 2.133 3.46 4.8 3.46 8 0 3.467-1.134 6.28-3.4 8.44zm-17.88-13.48c-1.573 0-2.72.527-3.44 1.58-.72 1.054-1.08 2.234-1.08 3.54 0 1.467.36 2.734 1.08 3.801.72 1.066 1.867 1.6 3.44 1.6zm11.54 1.6c-.68-1.066-1.807-1.6-3.38-1.6v10.48c.88 0 1.627-.179 2.24-.54.613-.36 1.066-.833 1.36-1.42.293-.586.5-1.153.62-1.7a7.9 7.9 0 0 0 .18-1.7 6.42 6.42 0 0 0-1.02-3.52z"/><path id="kiztb" d="M533.564 479.537h-7.72v-14.68h-3.92c0 3.654-.214 6.467-.64 8.44-.48 2.374-1.327 4.074-2.54 5.1-1.214 1.027-2.94 1.54-5.18 1.54-.347 0-.754-.046-1.22-.14a17.98 17.98 0 0 1-1.14-.26l-.44-.16v-5.64c.506.187.933.28 1.28.28.346 0 .646-.073.9-.22.253-.147.466-.373.64-.68.173-.307.313-.6.42-.88.106-.28.18-.653.22-1.12.04-.467.073-.833.1-1.1.026-.266.046-.633.06-1.1.013-.466.02-.753.02-.86.08-1.84.12-4.893.12-9.16h19.04z"/><path id="kiztc" d="M559.404 473.336c-.613 2.188-1.94 3.868-3.98 5.04-2.04 1.173-4.274 1.76-6.7 1.76-3.36 0-6.147-.946-8.36-2.84-2.214-1.892-3.32-4.506-3.32-7.84 0-3.226 1.073-5.879 3.22-7.959 2.147-2.08 4.873-3.12 8.18-3.12 3.467 0 6.233 1.08 8.3 3.24 2.067 2.16 3.1 5.066 3.1 8.72v.6h-15.2c.053 1.307.433 2.32 1.14 3.04.706.72 1.673 1.08 2.9 1.08 1.466 0 2.573-.573 3.32-1.72zm-7.28-6.359c-.213-2.347-1.427-3.52-3.64-3.52-2.133 0-3.4 1.173-3.8 3.52z"/><path id="kiztd" d="M584.884 458.897l-7.28 8.08 8.28 12.56h-9.24l-4.04-7-1.64 1.839v5.161h-7.88v-20.64h7.88v6.8h.12l5.12-6.8z"/><path id="kizte" d="M608.124 471.256c-.374 2.774-1.514 4.934-3.42 6.48-1.907 1.547-4.367 2.32-7.38 2.32-3.334 0-6.047-.986-8.14-2.96-2.094-1.973-3.14-4.546-3.14-7.72 0-3.28 1.04-5.926 3.12-7.939 2.08-2.014 4.813-3.02 8.2-3.02 2.987 0 5.447.76 7.38 2.28 1.933 1.52 3.006 3.52 3.22 6h-7.56c-.107-.827-.434-1.48-.98-1.96-.547-.48-1.207-.72-1.98-.72-2.32 0-3.48 1.8-3.48 5.4 0 3.253 1.146 4.88 3.44 4.88 1.786 0 2.84-1.014 3.16-3.04z"/><path id="kiztf" d="M625.043 458.897h7.88v20.64h-7.56v-11h-.12l-6 11h-7.88v-20.64h7.56v10.72h.12z"/><path id="kiztg" d="M658.963 458.897l-7.28 8.08 8.28 12.56h-9.24l-4.04-7-1.64 1.839v5.161h-7.88v-20.64h7.88v6.8h.12l5.12-6.8z"/><path id="kizth" d="M671.483 458.296c3.333 0 6.04 1 8.12 3 2.08 2 3.12 4.615 3.12 7.84 0 3.254-1.054 5.901-3.16 7.941-2.107 2.04-4.827 3.06-8.16 3.06-3.36 0-6.094-1.014-8.2-3.04-2.107-2.026-3.16-4.653-3.16-7.88 0-3.226 1.06-5.853 3.18-7.88s4.873-3.04 8.26-3.04zm-.16 5.721c-2.24 0-3.36 1.733-3.36 5.2 0 3.493 1.146 5.24 3.44 5.24 2.266 0 3.4-1.774 3.4-5.32 0-3.414-1.16-5.12-3.48-5.12z"/><path id="kizti" d="M699.883 465.697v-6.8h7.88v20.64h-7.88v-7.88h-5.8v7.88h-7.88v-20.64h7.88v6.8z"/><path id="kiztj" d="M725.16 472.26v-6.8h12.52v6.8z"/><path id="kiztk" d="M760.122 464.857h-6.6v-5.96h21.04v5.96h-6.6v14.68h-7.84z"/><path id="kiztl" d="M787.123 458.296c3.333 0 6.04 1 8.12 3 2.08 2 3.12 4.615 3.12 7.84 0 3.254-1.054 5.901-3.16 7.941-2.107 2.04-4.827 3.06-8.16 3.06-3.36 0-6.094-1.014-8.2-3.04-2.107-2.026-3.16-4.653-3.16-7.88 0-3.226 1.06-5.853 3.18-7.88s4.873-3.04 8.26-3.04zm-.16 5.721c-2.24 0-3.36 1.733-3.36 5.2 0 3.493 1.146 5.24 3.44 5.24 2.266 0 3.4-1.774 3.4-5.32 0-3.414-1.16-5.12-3.48-5.12z"/><path id="kiztm" d="M822.123 479.537h-7.72v-14.68h-3.92c0 3.654-.214 6.467-.64 8.44-.48 2.374-1.327 4.074-2.54 5.1-1.214 1.027-2.94 1.54-5.18 1.54-.347 0-.754-.046-1.22-.14a17.98 17.98 0 0 1-1.14-.26l-.44-.16v-5.64c.506.187.933.28 1.28.28.346 0 .646-.073.9-.22.253-.147.466-.373.64-.68.173-.307.313-.6.42-.88.106-.28.18-.653.22-1.12.04-.467.073-.833.1-1.1.026-.266.046-.633.06-1.1.013-.466.02-.753.02-.86.08-1.84.12-4.893.12-9.16h19.04z"/><path id="kiztn" d="M848.242 458.897l-7.28 8.08 8.28 12.56h-9.24l-4.04-7-1.64 1.839v5.161h-7.88v-20.64h7.88v6.8h.12l5.12-6.8z"/><path id="kizto" d="M860.762 458.296c3.333 0 6.04 1 8.12 3 2.08 2 3.12 4.615 3.12 7.84 0 3.254-1.054 5.901-3.16 7.941-2.107 2.04-4.827 3.06-8.16 3.06-3.36 0-6.094-1.014-8.2-3.04-2.107-2.026-3.16-4.653-3.16-7.88 0-3.226 1.06-5.853 3.18-7.88s4.873-3.04 8.26-3.04zm-.16 5.721c-2.24 0-3.36 1.733-3.36 5.2 0 3.493 1.146 5.24 3.44 5.24 2.266 0 3.4-1.774 3.4-5.32 0-3.414-1.16-5.12-3.48-5.12z"/><path id="kiztp" d="M875.082 479.537v-20.64h12.56c2.906 0 5.033.406 6.38 1.22 1.347.813 2.02 2.113 2.02 3.9 0 2.08-1 3.533-3 4.36v.08c1.066.213 1.966.76 2.7 1.64.733.88 1.1 1.906 1.1 3.08 0 4.24-2.867 6.36-8.6 6.36zm7.68-16.24v3.44h3.08c1.52 0 2.28-.6 2.28-1.8 0-1.094-.72-1.64-2.16-1.64zm3.4 11.72c.667 0 1.22-.187 1.66-.56.44-.374.66-.893.66-1.56 0-1.307-.894-1.96-2.68-1.96h-3.04v4.08z"/><path id="kiztq" d="M918.161 477.617c-1.414 1.28-3.507 1.92-6.28 1.92h-11.76v-20.64h7.68v6.439h4.28c2.773 0 4.833.608 6.18 1.821 1.347 1.214 2.02 2.927 2.02 5.139 0 2.268-.707 4.04-2.12 5.321zm-8.4-7.441h-1.96v4.561h1.96c1.76 0 2.64-.76 2.64-2.28 0-1.52-.88-2.281-2.64-2.281zm12.639 9.364V458.9h7.68v20.64z"/><path id="kiztr" d="M955.922 479.536h-7.56v-10.799h-.12l-6 10.8h-7.88v-20.64h7.56v10.52h.12l6-10.52h7.88zm-4.08-28.48c-.08 1.975-.747 3.515-2 4.62-1.254 1.108-2.827 1.66-4.72 1.66-2.054 0-3.7-.519-4.94-1.559-1.24-1.04-1.928-2.614-2.06-4.72h3.64c.133 1.467 1.253 2.2 3.36 2.2 1.866 0 2.906-.733 3.12-2.2z"/><path id="kizts" d="M994.841 471.256c-.374 2.774-1.514 4.934-3.42 6.48-1.907 1.547-4.367 2.32-7.38 2.32-3.334 0-6.047-.986-8.14-2.96-2.093-1.973-3.14-4.546-3.14-7.72 0-3.28 1.04-5.926 3.12-7.939 2.08-2.014 4.814-3.02 8.2-3.02 2.988 0 5.448.76 7.38 2.28 1.934 1.52 3.007 3.52 3.22 6h-7.56c-.106-.827-.433-1.48-.98-1.96-.546-.48-1.206-.72-1.98-.72-2.32 0-3.48 1.8-3.48 5.4 0 3.253 1.147 4.88 3.44 4.88 1.787 0 2.84-1.014 3.16-3.04z"/><path id="kiztt" d="M1018.361 479.537h-7.72v-14.68h-3.92c0 3.654-.214 6.467-.64 8.44-.48 2.374-1.327 4.074-2.54 5.1-1.214 1.027-2.94 1.54-5.18 1.54-.346 0-.753-.046-1.22-.14a17.98 17.98 0 0 1-1.14-.26l-.44-.16v-5.64c.506.187.933.28 1.28.28.346 0 .646-.073.9-.22.253-.147.466-.373.64-.68.173-.307.313-.6.42-.88.106-.28.18-.653.22-1.12.04-.467.073-.833.1-1.1.026-.266.046-.633.06-1.1.013-.466.02-.753.02-.86.08-1.84.12-4.893.12-9.16h19.04z"/><path id="kiztu" d="M1033.281 458.296c3.333 0 6.04 1 8.12 3 2.08 2 3.12 4.615 3.12 7.84 0 3.254-1.054 5.901-3.16 7.941-2.107 2.04-4.827 3.06-8.16 3.06-3.36 0-6.094-1.014-8.2-3.04-2.107-2.026-3.16-4.653-3.16-7.88 0-3.226 1.06-5.853 3.18-7.88s4.873-3.04 8.26-3.04zm-.16 5.721c-2.24 0-3.36 1.733-3.36 5.2 0 3.493 1.146 5.24 3.44 5.24 2.266 0 3.4-1.774 3.4-5.32 0-3.414-1.16-5.12-3.48-5.12z"/><path id="kiztv" d="M1047.6 479.537v-20.64h12.56c2.907 0 5.034.406 6.38 1.22 1.348.813 2.02 2.113 2.02 3.9 0 2.08-1 3.533-3 4.36v.08c1.067.213 1.967.76 2.7 1.64.734.88 1.1 1.906 1.1 3.08 0 4.24-2.866 6.36-8.6 6.36zm7.68-16.24v3.44h3.08c1.52 0 2.28-.6 2.28-1.8 0-1.094-.72-1.64-2.16-1.64zm3.4 11.72c.668 0 1.22-.187 1.66-.56.44-.374.66-.893.66-1.56 0-1.307-.893-1.96-2.68-1.96h-3.04v4.08z"/><path id="kiztw" d="M1093.88 479.536h-8a8.999 8.999 0 0 1-.32-1.92c-1.733 1.734-3.932 2.6-6.6 2.6-2.346 0-4.18-.573-5.5-1.72-1.32-1.146-1.98-2.733-1.98-4.759 0-1.04.214-1.947.64-2.72.427-.774.86-1.367 1.3-1.78.44-.413 1.194-.787 2.26-1.12 1.067-.334 1.827-.54 2.28-.62.454-.08 1.334-.214 2.64-.4.054-.026.1-.04.14-.04a.81.81 0 0 0 .16-.02c.067-.013.127-.02.18-.02.134-.027.454-.06.96-.1.507-.04.9-.087 1.18-.14a7.43 7.43 0 0 0 1-.28c.388-.133.674-.334.86-.6.187-.267.28-.587.28-.96 0-1.2-.866-1.8-2.6-1.8-.96 0-1.652.146-2.08.44-.425.293-.706.84-.84 1.64h-7.4c.188-4.614 3.628-6.92 10.32-6.92 5.308 0 8.56 1.28 9.76 3.84.374.773.56 2.026.56 3.76 0 .826-.012 2.047-.04 3.66-.026 1.613-.04 2.98-.04 4.1 0 2.747.294 4.707.88 5.88zm-8.48-9.4c-.586.4-1.812.801-3.68 1.2-1.44.321-2.16 1.04-2.16 2.16 0 .64.2 1.147.6 1.521.4.373.948.56 1.64.56 1.44 0 2.48-.534 3.12-1.6.32-.533.48-1.4.48-2.6z"/><path id="kiztx" d="M1104.8 458.897v2.239c1.413-1.84 3.386-2.76 5.92-2.76 2.693 0 4.86 1.008 6.5 3.02 1.64 2.015 2.46 4.675 2.46 7.98 0 3.255-.787 5.847-2.36 7.78-1.574 1.935-3.68 2.9-6.32 2.9-2.294 0-4.267-.906-5.92-2.72v8.84h-7.88v-27.28zm3.48 5.8c-2.293 0-3.44 1.573-3.44 4.72 0 3.093 1.16 4.639 3.48 4.639 2.293 0 3.44-1.56 3.44-4.68 0-3.12-1.16-4.68-3.48-4.68z"/><path id="kizty" d="M1144.04 472.297c0 2.267-.707 4.04-2.12 5.32-1.414 1.28-3.507 1.92-6.28 1.92h-12.56v-20.64h7.88v6.44h4.88c2.773 0 4.833.607 6.18 1.82 1.346 1.214 2.02 2.927 2.02 5.14zm-8.08.16c0-1.52-.88-2.28-2.64-2.28h-2.36v4.56h2.36c1.76 0 2.64-.76 2.64-2.28z"/><path id="kiztz" d="M1167.68 466.617h-.12l.2 12.92h-7.32v-20.64h9.88l3.92 12.04h.04l3.88-12.04h9.92v20.64h-7.32l.2-12.92h-.12l-4.24 12.92h-4.68z"/><path id="kiztA" d="M1202.96 458.296c3.332 0 6.04 1 8.12 3 2.08 2 3.12 4.615 3.12 7.84 0 3.254-1.055 5.901-3.16 7.941-2.108 2.04-4.828 3.06-8.16 3.06-3.36 0-6.095-1.014-8.2-3.04-2.108-2.026-3.16-4.653-3.16-7.88 0-3.226 1.06-5.853 3.18-7.88s4.872-3.04 8.26-3.04zm-.16 5.721c-2.24 0-3.36 1.733-3.36 5.2 0 3.493 1.145 5.24 3.44 5.24 2.265 0 3.4-1.774 3.4-5.32 0-3.414-1.16-5.12-3.48-5.12z"/><path id="kiztB" d="M1237.96 479.537h-7.72v-14.68h-3.92c0 3.654-.215 6.467-.64 8.44-.48 2.374-1.328 4.074-2.54 5.1-1.215 1.027-2.94 1.54-5.18 1.54-.348 0-.755-.046-1.22-.14a17.98 17.98 0 0 1-1.14-.26l-.44-.16v-5.64c.505.187.932.28 1.28.28.345 0 .645-.073.9-.22.252-.147.465-.373.64-.68.172-.307.312-.6.42-.88.105-.28.18-.653.22-1.12.04-.467.072-.833.1-1.1.025-.266.045-.633.06-1.1.012-.466.02-.753.02-.86.08-1.84.12-4.893.12-9.16h19.04z"/><path id="kiztC" d="M1252.879 458.296c3.333 0 6.04 1 8.12 3 2.08 2 3.12 4.615 3.12 7.84 0 3.254-1.055 5.901-3.16 7.941-2.108 2.04-4.828 3.06-8.16 3.06-3.36 0-6.095-1.014-8.2-3.04-2.108-2.026-3.16-4.653-3.16-7.88 0-3.226 1.06-5.853 3.18-7.88s4.872-3.04 8.26-3.04zm-.16 5.721c-2.24 0-3.36 1.733-3.36 5.2 0 3.493 1.146 5.24 3.44 5.24 2.266 0 3.4-1.774 3.4-5.32 0-3.414-1.16-5.12-3.48-5.12z"/><path id="kiztD" d="M1290.559 485.017h-7.08v-5.48h-11.44v5.48h-6.96v-11.44h2.28c1.813-2.586 2.72-7.48 2.72-14.68h18.16v14.68h2.32zm-10.12-11.44v-8.96h-3.56v.24c0 1.227-.154 2.754-.46 4.58-.307 1.827-.78 3.206-1.42 4.14z"/><path id="kiztE" d="M1314.438 473.336c-.613 2.188-1.94 3.868-3.98 5.04-2.04 1.173-4.274 1.76-6.7 1.76-3.36 0-6.147-.946-8.36-2.84-2.214-1.892-3.32-4.506-3.32-7.84 0-3.226 1.073-5.879 3.22-7.959 2.147-2.08 4.873-3.12 8.18-3.12 3.467 0 6.233 1.08 8.3 3.24 2.067 2.16 3.1 5.066 3.1 8.72v.6h-15.2c.053 1.307.433 2.32 1.14 3.04.706.72 1.673 1.08 2.9 1.08 1.466 0 2.573-.573 3.32-1.72zm-7.28-6.359c-.213-2.347-1.427-3.52-3.64-3.52-2.133 0-3.4 1.173-3.8 3.52z"/><path id="kiztF" d="M1329.359 473.417l-1.2-1.28-4 7.4h-9.44l8.56-12.2-7.6-8.44h9.16l4.44 6.68h.08v-6.68h7.56v6.68h.08l4.4-6.68h9.2l-7.6 8.44 8.52 12.2h-9.44l-4-7.4-1.16 1.28v6.12h-7.56z"/><path id="kiztG" d="M1367.118 465.697v-6.8h7.88v20.64h-7.88v-7.88h-5.8v7.88h-7.88v-20.64h7.88v6.8z"/><path id="kiztH" d="M1389.839 458.296c3.333 0 6.04 1 8.12 3 2.08 2 3.12 4.615 3.12 7.84 0 3.254-1.055 5.901-3.16 7.941-2.108 2.04-4.828 3.06-8.16 3.06-3.36 0-6.095-1.014-8.2-3.04-2.108-2.026-3.16-4.653-3.16-7.88 0-3.226 1.06-5.853 3.18-7.88s4.872-3.04 8.26-3.04zm-.16 5.721c-2.24 0-3.36 1.733-3.36 5.2 0 3.493 1.146 5.24 3.44 5.24 2.266 0 3.4-1.774 3.4-5.32 0-3.414-1.16-5.12-3.48-5.12z"/><path id="kiztI" d="M1404.718 458.897h17.2v5.96h-9.32v14.68h-7.88z"/><path id="kiztJ" d="M1434.319 458.296c3.333 0 6.04 1 8.12 3 2.08 2 3.12 4.615 3.12 7.84 0 3.254-1.054 5.901-3.16 7.941-2.107 2.04-4.827 3.06-8.16 3.06-3.36 0-6.094-1.014-8.2-3.04-2.107-2.026-3.16-4.653-3.16-7.88 0-3.226 1.06-5.853 3.18-7.88s4.873-3.04 8.26-3.04zm-.16 5.721c-2.24 0-3.36 1.733-3.36 5.2 0 3.493 1.146 5.24 3.44 5.24 2.266 0 3.4-1.774 3.4-5.32 0-3.414-1.16-5.12-3.48-5.12z"/><path id="kiztK" d="M492.543 519.256c-.374 2.774-1.514 4.934-3.42 6.48-1.907 1.547-4.367 2.32-7.38 2.32-3.334 0-6.047-.986-8.14-2.96-2.094-1.973-3.14-4.546-3.14-7.72 0-3.28 1.04-5.926 3.12-7.939 2.08-2.014 4.813-3.02 8.2-3.02 2.987 0 5.447.76 7.38 2.28 1.933 1.52 3.006 3.52 3.22 6h-7.56c-.107-.827-.434-1.48-.98-1.96-.547-.48-1.207-.72-1.98-.72-2.32 0-3.48 1.8-3.48 5.4 0 3.253 1.146 4.88 3.44 4.88 1.786 0 2.84-1.014 3.16-3.04z"/><path id="kiztL" d="M516.063 527.537h-7.72v-14.68h-3.92c0 3.654-.213 6.467-.64 8.44-.48 2.374-1.327 4.074-2.54 5.1-1.214 1.027-2.94 1.54-5.18 1.54-.347 0-.754-.046-1.22-.14a17.98 17.98 0 0 1-1.14-.26l-.44-.16v-5.64c.506.187.933.28 1.28.28.346 0 .646-.073.9-.22.253-.147.466-.373.64-.68.173-.307.313-.6.42-.88.106-.28.18-.653.22-1.12.04-.467.073-.833.1-1.1.026-.266.046-.633.06-1.1.013-.466.02-.753.02-.86.08-1.84.12-4.893.12-9.16h19.04z"/><path id="kiztM" d="M541.903 521.336c-.613 2.188-1.94 3.868-3.98 5.04-2.04 1.173-4.274 1.76-6.7 1.76-3.36 0-6.147-.946-8.36-2.84-2.215-1.892-3.32-4.506-3.32-7.84 0-3.226 1.072-5.879 3.22-7.959 2.146-2.08 4.872-3.12 8.18-3.12 3.466 0 6.232 1.08 8.3 3.24 2.066 2.16 3.1 5.066 3.1 8.72v.6h-15.2c.052 1.307.432 2.32 1.14 3.04.705.72 1.672 1.08 2.9 1.08 1.465 0 2.572-.573 3.32-1.72zm-7.28-6.359c-.214-2.347-1.428-3.52-3.64-3.52-2.133 0-3.4 1.173-3.8 3.52z"/><path id="kiztN" d="M559.383 513.697v-6.8h7.88v20.64h-7.88v-7.88h-5.8v7.88h-7.88v-20.64h7.88v6.8z"/><path id="kiztO" d="M571.783 506.897h17.2v5.96h-9.32v14.68h-7.88z"/><path id="kiztP" d="M612.023 527.536h-8a8.999 8.999 0 0 1-.32-1.92c-1.734 1.734-3.933 2.6-6.6 2.6-2.347 0-4.18-.573-5.5-1.72-1.32-1.146-1.98-2.733-1.98-4.759 0-1.04.213-1.947.64-2.72.426-.774.86-1.367 1.3-1.78.44-.413 1.193-.787 2.26-1.12 1.066-.334 1.826-.54 2.28-.62.453-.08 1.333-.214 2.64-.4.053-.026.1-.04.14-.04a.81.81 0 0 0 .16-.02c.066-.013.126-.02.18-.02.133-.027.453-.06.96-.1.506-.04.9-.087 1.18-.14a7.43 7.43 0 0 0 1-.28c.387-.133.673-.334.86-.6.186-.267.28-.587.28-.96 0-1.2-.867-1.8-2.6-1.8-.96 0-1.653.146-2.08.44-.426.293-.707.84-.84 1.64h-7.4c.187-4.614 3.627-6.92 10.32-6.92 5.307 0 8.56 1.28 9.76 3.84.373.773.56 2.026.56 3.76 0 .826-.013 2.047-.04 3.66-.027 1.613-.04 2.98-.04 4.1 0 2.747.293 4.707.88 5.88zm-8.48-9.4c-.587.4-1.813.801-3.68 1.2-1.44.321-2.16 1.04-2.16 2.16 0 .64.2 1.147.6 1.521.4.373.947.56 1.64.56 1.44 0 2.48-.534 3.12-1.6.32-.533.48-1.4.48-2.6z"/><path id="kiztQ" d="M623.143 519.337v7.24c0 2.426-.747 4.42-2.24 5.98-1.494 1.56-3.467 2.353-5.92 2.38v-3.68c1.093-.24 1.92-.647 2.48-1.22.56-.575.88-1.408.96-2.5h-3.44v-8.2z"/><path id="kiztR" d="M663.742 506.897l-7.28 8.08 8.28 12.56h-9.24l-4.04-7-1.64 1.839v5.161h-7.88v-20.64h7.88v6.8h.12l5.12-6.8z"/><path id="kiztS" d="M676.262 506.296c3.333 0 6.04 1 8.12 3 2.08 2 3.12 4.615 3.12 7.84 0 3.254-1.054 5.901-3.16 7.941-2.107 2.04-4.827 3.06-8.16 3.06-3.36 0-6.094-1.014-8.2-3.04-2.107-2.026-3.16-4.653-3.16-7.88 0-3.226 1.06-5.853 3.18-7.88s4.873-3.04 8.26-3.04zm-.16 5.721c-2.24 0-3.36 1.733-3.36 5.2 0 3.493 1.146 5.24 3.44 5.24 2.266 0 3.4-1.774 3.4-5.32 0-3.414-1.16-5.12-3.48-5.12z"/><path id="kiztT" d="M695.262 512.857h-6.6v-5.96h21.04v5.96h-6.6v14.68h-7.84z"/><path id="kiztU" d="M722.262 506.296c3.333 0 6.04 1 8.12 3 2.08 2 3.12 4.615 3.12 7.84 0 3.254-1.054 5.901-3.16 7.941-2.107 2.04-4.827 3.06-8.16 3.06-3.36 0-6.094-1.014-8.2-3.04-2.107-2.026-3.16-4.653-3.16-7.88 0-3.226 1.06-5.853 3.18-7.88s4.873-3.04 8.26-3.04zm-.16 5.721c-2.24 0-3.36 1.733-3.36 5.2 0 3.493 1.146 5.24 3.44 5.24 2.266 0 3.4-1.774 3.4-5.32 0-3.414-1.16-5.12-3.48-5.12z"/><path id="kiztV" d="M744.582 506.897v2.239c1.413-1.84 3.386-2.76 5.92-2.76 2.693 0 4.86 1.008 6.5 3.02 1.64 2.015 2.46 4.675 2.46 7.98 0 3.255-.787 5.847-2.36 7.78-1.574 1.935-3.68 2.9-6.32 2.9-2.294 0-4.267-.906-5.92-2.72v8.84h-7.88v-27.28zm3.48 5.8c-2.293 0-3.44 1.573-3.44 4.72 0 3.093 1.16 4.639 3.48 4.639 2.293 0 3.44-1.56 3.44-4.68 0-3.12-1.16-4.68-3.48-4.68z"/><path id="kiztW" d="M780.822 525.617c-1.414 1.28-3.506 1.92-6.28 1.92h-11.76v-20.64h7.68v6.439h4.28c2.773 0 4.833.608 6.181 1.821 1.346 1.214 2.02 2.927 2.02 5.139 0 2.268-.707 4.04-2.121 5.321zm-8.399-7.441h-1.961v4.561h1.961c1.759 0 2.639-.76 2.639-2.28 0-1.52-.88-2.281-2.639-2.281zm12.637 9.364V506.9h7.68v20.64z"/><path id="kiztX" d="M818.582 527.536h-7.56v-10.799h-.12l-6 10.8h-7.88v-20.64h7.56v10.52h.12l6-10.52h7.88zm-4.08-28.48c-.08 1.975-.747 3.515-2 4.62-1.254 1.108-2.827 1.66-4.72 1.66-2.054 0-3.7-.519-4.94-1.559-1.24-1.04-1.927-2.614-2.06-4.72h3.64c.133 1.467 1.253 2.2 3.36 2.2 1.866 0 2.906-.733 3.12-2.2z"/><path id="kiztY" d="M859.742 533.017h-7.08v-5.48h-11.44v5.48h-6.96v-11.44h2.28c1.813-2.586 2.72-7.48 2.72-14.68h18.16v14.68h2.32zm-10.12-11.44v-8.96h-3.56v.24c0 1.227-.154 2.754-.46 4.58-.307 1.827-.78 3.206-1.42 4.14z"/><path id="kiztZ" d="M883.341 527.536h-8a8.999 8.999 0 0 1-.32-1.92c-1.734 1.734-3.933 2.6-6.6 2.6-2.347 0-4.18-.573-5.5-1.72-1.32-1.146-1.98-2.733-1.98-4.759 0-1.04.213-1.947.64-2.72.426-.774.86-1.367 1.3-1.78.44-.413 1.193-.787 2.26-1.12 1.066-.334 1.826-.54 2.28-.62.453-.08 1.333-.214 2.64-.4.053-.026.1-.04.14-.04a.81.81 0 0 0 .16-.02c.066-.013.126-.02.18-.02.133-.027.453-.06.96-.1.506-.04.9-.087 1.18-.14a7.43 7.43 0 0 0 1-.28c.387-.133.673-.334.86-.6.186-.267.28-.587.28-.96 0-1.2-.867-1.8-2.6-1.8-.96 0-1.653.146-2.08.44-.426.293-.707.84-.84 1.64h-7.4c.187-4.614 3.627-6.92 10.32-6.92 5.307 0 8.56 1.28 9.76 3.84.373.773.56 2.026.56 3.76 0 .826-.013 2.047-.04 3.66-.027 1.613-.04 2.98-.04 4.1 0 2.747.293 4.707.88 5.88zm-8.48-9.4c-.587.4-1.813.801-3.68 1.2-1.44.321-2.16 1.04-2.16 2.16 0 .64.2 1.147.6 1.521.4.373.948.56 1.64.56 1.44 0 2.48-.534 3.12-1.6.32-.533.48-1.4.48-2.6z"/><path id="kiztaa" d="M898.821 521.417l-1.2-1.28-4 7.4h-9.44l8.56-12.2-7.6-8.44h9.16l4.44 6.68h.08v-6.68h7.56v6.68h.08l4.4-6.68h9.2l-7.6 8.44 8.52 12.2h-9.44l-4-7.4-1.16 1.28v6.12h-7.56z"/><path id="kiztab" d="M943.582 521.336c-.613 2.188-1.94 3.868-3.98 5.04-2.04 1.173-4.274 1.76-6.7 1.76-3.36 0-6.148-.946-8.36-2.84-2.215-1.892-3.32-4.506-3.32-7.84 0-3.226 1.072-5.879 3.22-7.959 2.146-2.08 4.872-3.12 8.18-3.12 3.466 0 6.232 1.08 8.3 3.24 2.066 2.16 3.1 5.066 3.1 8.72v.6h-15.2c.052 1.307.432 2.32 1.14 3.04.705.72 1.672 1.08 2.9 1.08 1.465 0 2.572-.573 3.32-1.72zm-7.28-6.359c-.213-2.347-1.427-3.52-3.64-3.52-2.133 0-3.4 1.173-3.8 3.52z"/><path id="kiztac" d="M982.301 517.417c0 3.174-1.027 5.754-3.08 7.74-2.053 1.987-4.707 2.98-7.96 2.98-3.6 0-6.4-1.173-8.4-3.52-1.76-2.026-2.64-5.533-2.64-10.52 0-3.626.56-6.62 1.68-8.98 1.12-2.36 3.026-4.046 5.72-5.06.826-.32 1.76-.553 2.8-.7 1.04-.146 1.893-.306 2.56-.48.667-.173 1.2-.486 1.6-.94h7.28c-.054 1.12-.3 2.1-.74 2.94-.44.84-.874 1.48-1.3 1.92-.427.44-1.207.853-2.34 1.24-1.134.387-1.947.634-2.44.74-.493.107-1.487.28-2.98.52-.4.08-.694.134-.88.16-3.627.614-5.654 2.374-6.08 5.28h.12c1.413-2.56 3.986-3.84 7.72-3.84 2.64 0 4.86.98 6.66 2.94 1.8 1.96 2.7 4.487 2.7 7.58zm-7.92 0c0-3.227-1.067-4.84-3.2-4.84-2.053 0-3.08 1.64-3.08 4.92 0 3.307 1.053 4.96 3.16 4.96 2.08 0 3.12-1.68 3.12-5.04z"/><path id="kiztad" d="M1007.06 527.536h-8a8.999 8.999 0 0 1-.32-1.92c-1.733 1.734-3.932 2.6-6.6 2.6-2.346 0-4.18-.573-5.5-1.72-1.32-1.146-1.98-2.733-1.98-4.759 0-1.04.214-1.947.64-2.72.427-.774.86-1.367 1.3-1.78.44-.413 1.194-.787 2.26-1.12 1.067-.334 1.827-.54 2.28-.62.454-.08 1.334-.214 2.64-.4.054-.026.1-.04.14-.04a.81.81 0 0 0 .16-.02c.067-.013.127-.02.18-.02.134-.027.454-.06.96-.1.507-.04.9-.087 1.18-.14a7.43 7.43 0 0 0 1-.28c.388-.133.674-.334.86-.6.187-.267.28-.587.28-.96 0-1.2-.866-1.8-2.6-1.8-.96 0-1.652.146-2.08.44-.425.293-.706.84-.84 1.64h-7.4c.188-4.614 3.628-6.92 10.32-6.92 5.308 0 8.56 1.28 9.76 3.84.374.773.56 2.026.56 3.76 0 .826-.012 2.047-.04 3.66-.026 1.613-.04 2.98-.04 4.1 0 2.747.294 4.707.88 5.88zm-8.48-9.4c-.586.4-1.812.801-3.68 1.2-1.44.321-2.16 1.04-2.16 2.16 0 .64.2 1.147.6 1.521.4.373.948.56 1.64.56 1.44 0 2.48-.534 3.12-1.6.32-.533.48-1.4.48-2.6z"/><path id="kiztae" d="M1031.94 517.417c0 3.174-1.027 5.754-3.08 7.74-2.053 1.987-4.707 2.98-7.96 2.98-3.6 0-6.4-1.173-8.4-3.52-1.76-2.026-2.64-5.533-2.64-10.52 0-3.626.56-6.62 1.68-8.98 1.12-2.36 3.026-4.046 5.72-5.06.826-.32 1.76-.553 2.8-.7 1.04-.146 1.893-.306 2.56-.48.667-.173 1.2-.486 1.6-.94h7.28c-.054 1.12-.3 2.1-.74 2.94-.44.84-.874 1.48-1.3 1.92-.427.44-1.207.853-2.34 1.24-1.134.387-1.947.634-2.44.74-.493.107-1.487.28-2.98.52-.4.08-.694.134-.88.16-3.627.614-5.654 2.374-6.08 5.28h.12c1.413-2.56 3.986-3.84 7.72-3.84 2.64 0 4.86.98 6.66 2.94 1.8 1.96 2.7 4.487 2.7 7.58zm-7.92 0c0-3.227-1.067-4.84-3.2-4.84-2.053 0-3.08 1.64-3.08 4.92 0 3.307 1.053 4.96 3.16 4.96 2.08 0 3.12-1.68 3.12-5.04z"/><path id="kiztaf" d="M1056.06 506.897l-7.56 21.12c-.827 2.319-1.834 3.933-3.02 4.84-1.187.906-2.994 1.359-5.42 1.359h-5.16v-6.319a39.8 39.8 0 0 0 1.84.04c.426 0 .773-.014 1.04-.04.266-.027.573-.087.92-.181.346-.093.613-.265.8-.519.186-.253.28-.58.28-.981 0-.265-.08-.599-.24-1l-6.72-18.319h8.4l2.32 8.159c.373 1.334.706 2.935 1 4.801.48-2.453.853-4.134 1.12-5.04l2.28-7.92z"/><path id="kiztag" d="M1057.78 527.537v-20.64h7.72v14.6h4.68v-14.6h7.68v14.6h4.68v-14.6h7.72v20.64z"/><path id="kiztah" d="M1116.3 506.897l-7.28 8.08 8.28 12.56h-9.24l-4.04-7-1.64 1.839v5.161h-7.88v-20.64h7.88v6.8h.12l5.12-6.8z"/><path id="kiztai" d="M1139.74 521.336c-.614 2.188-1.94 3.868-3.98 5.04-2.04 1.173-4.275 1.76-6.7 1.76-3.36 0-6.148-.946-8.36-2.84-2.215-1.892-3.32-4.506-3.32-7.84 0-3.226 1.072-5.879 3.22-7.959 2.146-2.08 4.872-3.12 8.18-3.12 3.466 0 6.232 1.08 8.3 3.24 2.066 2.16 3.1 5.066 3.1 8.72v.6h-15.2c.052 1.307.432 2.32 1.14 3.04.705.72 1.672 1.08 2.9 1.08 1.465 0 2.572-.573 3.32-1.72zm-7.28-6.359c-.214-2.347-1.428-3.52-3.64-3.52-2.134 0-3.4 1.173-3.8 3.52z"/><path id="kiztaj" d="M1167.379 506.296c3.333 0 6.04 1 8.12 3 2.08 2 3.12 4.615 3.12 7.84 0 3.254-1.054 5.901-3.16 7.941-2.107 2.04-4.827 3.06-8.16 3.06-3.36 0-6.094-1.014-8.2-3.04-2.107-2.026-3.16-4.653-3.16-7.88 0-3.226 1.06-5.853 3.18-7.88s4.873-3.04 8.26-3.04zm-.16 5.721c-2.24 0-3.36 1.733-3.36 5.2 0 3.493 1.146 5.24 3.44 5.24 2.266 0 3.4-1.774 3.4-5.32 0-3.414-1.16-5.12-3.48-5.12z"/><path id="kiztak" d="M1203.659 517.417c0 3.174-1.028 5.754-3.08 7.74-2.053 1.987-4.707 2.98-7.96 2.98-3.6 0-6.4-1.173-8.4-3.52-1.76-2.026-2.64-5.533-2.64-10.52 0-3.626.56-6.62 1.68-8.98 1.12-2.36 3.025-4.046 5.72-5.06.825-.32 1.76-.553 2.8-.7 1.04-.146 1.892-.306 2.56-.48.666-.173 1.2-.486 1.6-.94h7.28c-.055 1.12-.3 2.1-.74 2.94-.44.84-.875 1.48-1.3 1.92-.428.44-1.208.853-2.34 1.24-1.135.387-1.948.634-2.44.74-.494.107-1.488.28-2.98.52-.4.08-.695.134-.88.16-3.628.614-5.655 2.374-6.08 5.28h.12c1.412-2.56 3.985-3.84 7.72-3.84 2.64 0 4.86.98 6.66 2.94 1.8 1.96 2.7 4.487 2.7 7.58zm-7.92 0c0-3.227-1.068-4.84-3.2-4.84-2.054 0-3.08 1.64-3.08 4.92 0 3.307 1.052 4.96 3.16 4.96 2.08 0 3.12-1.68 3.12-5.04z"/><path id="kiztal" d="M1231.698 520.297c0 2.267-.707 4.04-2.12 5.32-1.414 1.28-3.52 1.92-6.32 1.92h-12.56v-14.68h-5.36v-5.96h13.2v6.44h4.96c2.747 0 4.8.607 6.16 1.82 1.36 1.214 2.04 2.927 2.04 5.14zm-8.12.16c0-1.546-.867-2.32-2.6-2.32h-2.4v4.6h2.36c1.76 0 2.64-.76 2.64-2.28z"/><path id="kiztam" d="M1245.698 520.497l-3.72 7.04h-9.44l5.32-7.76c-1.44-.613-2.487-1.514-3.14-2.7-.653-1.187-.98-2.367-.98-3.54 0-2.027.753-3.64 2.26-4.84 1.506-1.2 3.753-1.8 6.74-1.8h12.04v20.64h-7.88v-7.04zm1.2-4.56v-4.44h-2.2c-1.867 0-2.8.733-2.8 2.2 0 1.493.92 2.24 2.76 2.24z"/><path id="kiztan" d="M1280.377 519.256c-.374 2.774-1.514 4.934-3.42 6.48-1.907 1.547-4.367 2.32-7.38 2.32-3.334 0-6.047-.986-8.14-2.96-2.094-1.973-3.14-4.546-3.14-7.72 0-3.28 1.04-5.926 3.12-7.939 2.08-2.014 4.813-3.02 8.2-3.02 2.987 0 5.447.76 7.38 2.28 1.933 1.52 3.006 3.52 3.22 6h-7.56c-.107-.827-.434-1.48-.98-1.96-.547-.48-1.207-.72-1.98-.72-2.32 0-3.48 1.8-3.48 5.4 0 3.253 1.146 4.88 3.44 4.88 1.786 0 2.84-1.014 3.16-3.04z"/><path id="kiztao" d="M1297.297 513.697v-6.8h7.88v20.64h-7.88v-7.88h-5.8v7.88h-7.88v-20.64h7.88v6.8z"/><path id="kiztap" d="M1323.217 506.897h7.88v20.64h-7.56v-11h-.12l-6 11h-7.88v-20.64h7.56v10.72h.12z"/><path id="kiztaq" d="M1340.457 512.857h-6.6v-5.96h21.04v5.96h-6.6v14.68h-7.84z"/><path id="kiztar" d="M1362.937 519.337v7.24c0 2.426-.747 4.42-2.24 5.98-1.494 1.56-3.467 2.353-5.92 2.38v-3.68c1.093-.24 1.92-.647 2.48-1.22.56-.575.88-1.408.96-2.5h-3.44v-8.2z"/><path id="kiztas" d="M1401.976 506.897v20.64h-7.32v-8.12c-2.267.799-4.387 1.2-6.36 1.2-4.747 0-7.12-2.746-7.12-8.241v-5.479h7.88v4.479c0 1.387.22 2.354.66 2.901.44.547 1.153.819 2.14.819.853 0 1.6-.213 2.24-.639v-7.56z"/><path id="kiztat" d="M1411.296 512.857h-6.6v-5.96h21.04v5.96h-6.6v14.68h-7.84z"/><path id="kiztau" d="M1438.297 506.296c3.333 0 6.04 1 8.12 3 2.08 2 3.12 4.615 3.12 7.84 0 3.254-1.054 5.901-3.16 7.941-2.107 2.04-4.827 3.06-8.16 3.06-3.36 0-6.094-1.014-8.2-3.04-2.107-2.026-3.16-4.653-3.16-7.88 0-3.226 1.06-5.853 3.18-7.88s4.873-3.04 8.26-3.04zm-.16 5.721c-2.24 0-3.36 1.733-3.36 5.2 0 3.493 1.146 5.24 3.44 5.24 2.266 0 3.4-1.774 3.4-5.32 0-3.414-1.16-5.12-3.48-5.12z"/><path id="kiztav" d="M643.523 575.537h-7.72v-14.68h-3.92c0 3.654-.214 6.467-.64 8.44-.48 2.374-1.327 4.074-2.54 5.1-1.214 1.027-2.94 1.54-5.18 1.54-.347 0-.754-.046-1.22-.14a17.98 17.98 0 0 1-1.14-.26l-.44-.16v-5.64c.506.187.933.28 1.28.28.346 0 .646-.073.9-.22.253-.147.466-.373.64-.68.173-.307.313-.6.42-.88.106-.28.18-.653.22-1.12.04-.467.073-.833.1-1.1.026-.266.046-.633.06-1.1.013-.466.02-.753.02-.86.08-1.84.12-4.893.12-9.16h19.04z"/><path id="kiztaw" d="M658.443 554.296c3.333 0 6.04 1 8.12 3 2.08 2 3.12 4.615 3.12 7.84 0 3.254-1.054 5.901-3.16 7.941-2.107 2.04-4.827 3.06-8.16 3.06-3.36 0-6.094-1.014-8.2-3.04-2.107-2.026-3.16-4.653-3.16-7.88 0-3.226 1.06-5.853 3.18-7.88s4.873-3.04 8.26-3.04zm-.16 5.721c-2.24 0-3.36 1.733-3.36 5.2 0 3.493 1.146 5.24 3.44 5.24 2.266 0 3.4-1.774 3.4-5.32 0-3.414-1.16-5.12-3.48-5.12z"/><path id="kiztax" d="M694.723 575.536h-7.56v-10.799h-.12l-6 10.8h-7.88v-20.64h7.56v10.52h.12l6-10.52h7.88zm-4.08-28.48c-.08 1.975-.747 3.515-2 4.62-1.254 1.108-2.827 1.66-4.72 1.66-2.054 0-3.7-.519-4.94-1.559-1.24-1.04-1.927-2.614-2.06-4.72h3.64c.133 1.467 1.253 2.2 3.36 2.2 1.866 0 2.906-.733 3.12-2.2z"/><path id="kiztay" d="M720.283 567.256c-.374 2.774-1.514 4.934-3.42 6.48-1.907 1.547-4.367 2.32-7.38 2.32-3.334 0-6.047-.986-8.14-2.96-2.094-1.973-3.14-4.546-3.14-7.72 0-3.28 1.04-5.926 3.12-7.939 2.08-2.014 4.813-3.02 8.2-3.02 2.987 0 5.447.76 7.38 2.28 1.933 1.52 3.006 3.52 3.22 6h-7.56c-.107-.827-.434-1.48-.98-1.96-.547-.48-1.207-.72-1.98-.72-2.32 0-3.48 1.8-3.48 5.4 0 3.253 1.146 4.88 3.44 4.88 1.786 0 2.84-1.014 3.16-3.04z"/><path id="kiztaz" d="M750.562 554.897h7.88v20.64h-7.56v-11h-.12l-6 11h-7.88v-20.64h7.56v10.72h.12z"/><path id="kiztaA" d="M796.922 575.537h-7.72v-14.68h-3.92c0 3.654-.214 6.467-.64 8.44-.48 2.374-1.327 4.074-2.54 5.1-1.214 1.027-2.94 1.54-5.18 1.54-.347 0-.754-.046-1.22-.14a17.98 17.98 0 0 1-1.14-.26l-.44-.16v-5.64c.506.187.933.28 1.28.28.346 0 .646-.073.9-.22.253-.147.466-.373.64-.68.173-.307.313-.6.42-.88.106-.28.18-.653.22-1.12.04-.467.073-.833.1-1.1.026-.266.046-.633.06-1.1.013-.466.02-.753.02-.86.08-1.84.12-4.893.12-9.16h19.04z"/><path id="kiztaB" d="M811.842 554.296c3.333 0 6.04 1 8.12 3 2.08 2 3.12 4.615 3.12 7.84 0 3.254-1.054 5.901-3.16 7.941-2.107 2.04-4.827 3.06-8.16 3.06-3.36 0-6.094-1.014-8.2-3.04-2.107-2.026-3.16-4.653-3.16-7.88 0-3.226 1.06-5.853 3.18-7.88s4.873-3.04 8.26-3.04zm-.16 5.721c-2.24 0-3.36 1.733-3.36 5.2 0 3.493 1.146 5.24 3.44 5.24 2.266 0 3.4-1.774 3.4-5.32 0-3.414-1.16-5.12-3.48-5.12z"/><path id="kiztaC" d="M847.761 567.256c-.374 2.774-1.514 4.934-3.42 6.48-1.907 1.547-4.367 2.32-7.38 2.32-3.334 0-6.047-.986-8.14-2.96-2.094-1.973-3.14-4.546-3.14-7.72 0-3.28 1.04-5.926 3.12-7.939 2.08-2.014 4.813-3.02 8.2-3.02 2.987 0 5.447.76 7.38 2.28 1.933 1.52 3.006 3.52 3.22 6h-7.56c-.107-.827-.434-1.48-.98-1.96-.547-.48-1.207-.72-1.98-.72-2.32 0-3.48 1.8-3.48 5.4 0 3.253 1.146 4.88 3.44 4.88 1.786 0 2.84-1.014 3.16-3.04z"/><path id="kiztaD" d="M871.921 568.297c0 2.267-.707 4.04-2.12 5.32-1.414 1.28-3.507 1.92-6.28 1.92h-12.56v-20.64h7.88v6.44h4.88c2.773 0 4.833.607 6.18 1.82 1.346 1.214 2.02 2.927 2.02 5.14zm-8.08.16c0-1.52-.88-2.28-2.64-2.28h-2.36v4.56h2.36c1.76 0 2.64-.76 2.64-2.28z"/><path id="kiztaE" d="M888.04 568.26v-6.8h12.52v6.8z"/><path id="kiztaF" d="M938.92 565.376c0 3.174-1.047 5.747-3.14 7.72-2.094 1.974-4.807 2.96-8.14 2.96-2.96 0-5.38-.74-7.26-2.22-1.88-1.48-3.047-3.553-3.5-6.22h7.6c.346 1.787 1.373 2.68 3.08 2.68 1.893 0 3-1.12 3.32-3.359h-4.92v-3.96h4.8c-.48-1.974-1.56-2.96-3.24-2.96-.747 0-1.38.206-1.9.62-.52.413-.86.993-1.02 1.74h-7.56c.266-2.4 1.36-4.327 3.28-5.78 1.92-1.454 4.346-2.18 7.28-2.18 3.386 0 6.12 1.006 8.2 3.02 2.08 2.013 3.12 4.66 3.12 7.94z"/><path id="kiztaG" d="M946.72 560.857h-6.6v-5.96h21.04v5.96h-6.6v14.68h-7.84z"/><path id="kiztaH" d="M973.72 554.296c3.333 0 6.04 1 8.12 3 2.08 2 3.12 4.615 3.12 7.84 0 3.254-1.054 5.901-3.16 7.941-2.107 2.04-4.827 3.06-8.16 3.06-3.36 0-6.094-1.014-8.2-3.04-2.107-2.026-3.16-4.653-3.16-7.88 0-3.226 1.06-5.853 3.18-7.88s4.873-3.04 8.26-3.04zm-.16 5.721c-2.24 0-3.36 1.733-3.36 5.2 0 3.493 1.146 5.24 3.44 5.24 2.266 0 3.4-1.774 3.4-5.32 0-3.414-1.16-5.12-3.48-5.12z"/><path id="kiztaI" d="M1009.4 554.897v2.239c1.413-1.84 3.386-2.76 5.92-2.76 2.693 0 4.86 1.008 6.5 3.02 1.64 2.015 2.46 4.675 2.46 7.98 0 3.255-.787 5.847-2.36 7.78-1.574 1.935-3.68 2.9-6.32 2.9-2.294 0-4.267-.906-5.92-2.72v8.84h-7.88v-27.28zm3.48 5.8c-2.293 0-3.44 1.573-3.44 4.72 0 3.094 1.16 4.639 3.48 4.639 2.293 0 3.44-1.56 3.44-4.68 0-3.12-1.16-4.68-3.48-4.68z"/><path id="kiztaJ" d="M1048.84 575.536h-8a8.999 8.999 0 0 1-.32-1.92c-1.734 1.734-3.933 2.6-6.6 2.6-2.347 0-4.18-.573-5.5-1.72-1.32-1.146-1.98-2.733-1.98-4.759 0-1.04.213-1.947.64-2.72.426-.774.86-1.367 1.3-1.78.44-.413 1.193-.787 2.26-1.12 1.066-.334 1.826-.54 2.28-.62.453-.08 1.333-.214 2.64-.4.053-.026.1-.04.14-.04a.81.81 0 0 0 .16-.02c.066-.013.126-.02.18-.02.133-.027.453-.06.96-.1.506-.04.9-.087 1.18-.14a7.43 7.43 0 0 0 1-.28c.387-.133.673-.334.86-.6.186-.267.28-.587.28-.96 0-1.2-.867-1.8-2.6-1.8-.96 0-1.653.146-2.08.44-.426.293-.707.84-.84 1.64h-7.4c.187-4.614 3.627-6.92 10.32-6.92 5.307 0 8.56 1.28 9.76 3.84.373.773.56 2.026.56 3.76 0 .826-.013 2.047-.04 3.66-.027 1.613-.04 2.98-.04 4.1 0 2.747.293 4.707.88 5.88zm-8.48-9.4c-.587.4-1.813.801-3.68 1.2-1.44.321-2.16 1.04-2.16 2.16 0 .64.2 1.147.6 1.521.4.373.947.56 1.64.56 1.44 0 2.48-.534 3.12-1.6.32-.533.48-1.4.48-2.6z"/><path id="kiztaK" d="M1050.92 568.377h7.52c0 .907.32 1.647.96 2.22.64.574 1.425.86 2.36.86.905 0 1.592-.233 2.06-.7.465-.466.7-1.033.7-1.7 0-.8-.268-1.34-.8-1.62-.535-.28-1.348-.42-2.44-.42-.56 0-1 .014-1.32.04v-4.16c1.465 0 2.505-.14 3.12-.42.612-.28.92-.833.92-1.66 0-.506-.215-.913-.64-1.22-.428-.306-.975-.46-1.64-.46-.588 0-1.12.174-1.6.52-.48.347-.775.867-.88 1.56h-7.44c0-2.32.945-4.04 2.84-5.16 1.892-1.12 4.4-1.68 7.52-1.68 3.12 0 5.525.52 7.22 1.56 1.692 1.04 2.54 2.467 2.54 4.28 0 .933-.28 1.767-.84 2.5-.56.734-1.295 1.287-2.2 1.66 1.172.214 2.105.74 2.8 1.58.692.84 1.04 1.78 1.04 2.82 0 2.4-.995 4.227-2.98 5.48-1.988 1.254-4.795 1.88-8.42 1.88-3.148 0-5.668-.646-7.56-1.94-1.895-1.293-2.84-3.193-2.84-5.7z"/><path id="kiztaL" d="M1089.84 561.697v-6.8h7.88v20.64h-7.88v-7.88h-5.8v7.88h-7.88v-20.64h7.88v6.8z"/><path id="kiztaM" d="M1119.999 573.617c-1.414 1.28-3.507 1.92-6.28 1.92h-11.76v-20.64h7.68v6.439h4.28c2.773 0 4.833.608 6.18 1.821 1.347 1.214 2.02 2.927 2.02 5.139 0 2.268-.707 4.041-2.12 5.321zm-8.4-7.441h-1.96v4.561h1.96c1.76 0 2.64-.76 2.64-2.28 0-1.52-.88-2.281-2.64-2.281zm12.641 9.364V554.9h7.68v20.64z"/><path id="kiztaN" d="M1157.598 569.336c-.613 2.188-1.94 3.868-3.98 5.04-2.04 1.173-4.274 1.76-6.7 1.76-3.36 0-6.147-.946-8.36-2.84-2.214-1.892-3.32-4.505-3.32-7.84 0-3.226 1.073-5.879 3.22-7.959 2.147-2.08 4.873-3.12 8.18-3.12 3.467 0 6.233 1.08 8.3 3.24 2.067 2.16 3.1 5.066 3.1 8.72v.6h-15.2c.053 1.307.433 2.32 1.14 3.04.706.72 1.673 1.08 2.9 1.08 1.466 0 2.573-.573 3.32-1.72zm-7.28-6.359c-.213-2.347-1.427-3.52-3.64-3.52-2.133 0-3.4 1.173-3.8 3.52z"/><path id="kiztaO" d="M1174.358 575.537v-20.64h12.56c2.906 0 5.033.406 6.38 1.22 1.347.813 2.02 2.113 2.02 3.9 0 2.08-1 3.533-3 4.36v.08c1.066.213 1.966.76 2.7 1.64.733.88 1.1 1.906 1.1 3.08 0 4.24-2.867 6.36-8.6 6.36zm7.68-16.24v3.44h3.08c1.52 0 2.28-.6 2.28-1.8 0-1.094-.72-1.64-2.16-1.64zm3.4 11.72c.667 0 1.22-.187 1.66-.56.44-.374.66-.893.66-1.56 0-1.307-.894-1.96-2.68-1.96h-3.04v4.08z"/><path id="kiztaP" d="M1220.918 569.336c-.613 2.188-1.94 3.868-3.98 5.04-2.04 1.173-4.275 1.76-6.7 1.76-3.36 0-6.148-.946-8.36-2.84-2.214-1.892-3.32-4.505-3.32-7.84 0-3.226 1.073-5.879 3.22-7.959 2.147-2.08 4.873-3.12 8.18-3.12 3.467 0 6.233 1.08 8.3 3.24 2.067 2.16 3.1 5.066 3.1 8.72v.6h-15.2c.053 1.307.433 2.32 1.14 3.04.706.72 1.673 1.08 2.9 1.08 1.466 0 2.573-.573 3.32-1.72zm-7.28-6.359c-.213-2.347-1.427-3.52-3.64-3.52-2.134 0-3.4 1.173-3.8 3.52z"/><path id="kiztaQ" d="M1224.478 575.537v-20.64h7.72v14.6h4.68v-14.6h7.68v14.6h4.68v-14.6h7.72v14.6h2.68v11.52h-7.2v-5.48z"/><path id="kiztaR" d="M1275.997 554.897h7.88v20.64h-7.56v-11h-.12l-6 11h-7.88v-20.64h7.56v10.72h.12z"/><path id="kiztaS" d="M1287.84 575.54v-8.2h8.24v8.2z"/></defs><g><g transform="translate(-470 -451)"><use fill="#fff" xlink:href="#kizta"/></g><g transform="translate(-470 -451)"><use fill="#fff" xlink:href="#kiztb"/></g><g transform="translate(-470 -451)"><use fill="#fff" xlink:href="#kiztc"/></g><g transform="translate(-470 -451)"><use fill="#fff" xlink:href="#kiztd"/></g><g transform="translate(-470 -451)"><use fill="#fff" xlink:href="#kizte"/></g><g transform="translate(-470 -451)"><use fill="#fff" xlink:href="#kiztf"/></g><g transform="translate(-470 -451)"><use fill="#fff" xlink:href="#kiztg"/></g><g transform="translate(-470 -451)"><use fill="#fff" xlink:href="#kizth"/></g><g transform="translate(-470 -451)"><use fill="#fff" xlink:href="#kizti"/></g><g transform="translate(-470 -451)"><use fill="#fff" xlink:href="#kiztj"/></g><g transform="translate(-470 -451)"><use fill="#fff" xlink:href="#kiztk"/></g><g transform="translate(-470 -451)"><use fill="#fff" xlink:href="#kiztl"/></g><g transform="translate(-470 -451)"><use fill="#fff" xlink:href="#kiztm"/></g><g transform="translate(-470 -451)"><use fill="#fff" xlink:href="#kiztn"/></g><g transform="translate(-470 -451)"><use fill="#fff" xlink:href="#kizto"/></g><g transform="translate(-470 -451)"><use fill="#fff" xlink:href="#kiztp"/></g><g transform="translate(-470 -451)"><use fill="#fff" xlink:href="#kiztq"/></g><g transform="translate(-470 -451)"><use fill="#fff" xlink:href="#kiztr"/></g><g transform="translate(-470 -451)"><use fill="#fff" xlink:href="#kizts"/></g><g transform="translate(-470 -451)"><use fill="#fff" xlink:href="#kiztt"/></g><g transform="translate(-470 -451)"><use fill="#fff" xlink:href="#kiztu"/></g><g transform="translate(-470 -451)"><use fill="#fff" xlink:href="#kiztv"/></g><g transform="translate(-470 -451)"><use fill="#fff" xlink:href="#kiztw"/></g><g transform="translate(-470 -451)"><use fill="#fff" xlink:href="#kiztx"/></g><g transform="translate(-470 -451)"><use fill="#fff" xlink:href="#kizty"/></g><g transform="translate(-470 -451)"><use fill="#fff" xlink:href="#kiztz"/></g><g transform="translate(-470 -451)"><use fill="#fff" xlink:href="#kiztA"/></g><g transform="translate(-470 -451)"><use fill="#fff" xlink:href="#kiztB"/></g><g transform="translate(-470 -451)"><use fill="#fff" xlink:href="#kiztC"/></g><g transform="translate(-470 -451)"><use fill="#fff" xlink:href="#kiztD"/></g><g transform="translate(-470 -451)"><use fill="#fff" xlink:href="#kiztE"/></g><g transform="translate(-470 -451)"><use fill="#fff" xlink:href="#kiztF"/></g><g transform="translate(-470 -451)"><use fill="#fff" xlink:href="#kiztG"/></g><g transform="translate(-470 -451)"><use fill="#fff" xlink:href="#kiztH"/></g><g transform="translate(-470 -451)"><use fill="#fff" xlink:href="#kiztI"/></g><g transform="translate(-470 -451)"><use fill="#fff" xlink:href="#kiztJ"/></g><g transform="translate(-470 -451)"><use fill="#fff" xlink:href="#kiztK"/></g><g transform="translate(-470 -451)"><use fill="#fff" xlink:href="#kiztL"/></g><g transform="translate(-470 -451)"><use fill="#fff" xlink:href="#kiztM"/></g><g transform="translate(-470 -451)"><use fill="#fff" xlink:href="#kiztN"/></g><g transform="translate(-470 -451)"><use fill="#fff" xlink:href="#kiztO"/></g><g transform="translate(-470 -451)"><use fill="#fff" xlink:href="#kiztP"/></g><g transform="translate(-470 -451)"><use fill="#fff" xlink:href="#kiztQ"/></g><g transform="translate(-470 -451)"><use fill="#fff" xlink:href="#kiztR"/></g><g transform="translate(-470 -451)"><use fill="#fff" xlink:href="#kiztS"/></g><g transform="translate(-470 -451)"><use fill="#fff" xlink:href="#kiztT"/></g><g transform="translate(-470 -451)"><use fill="#fff" xlink:href="#kiztU"/></g><g transform="translate(-470 -451)"><use fill="#fff" xlink:href="#kiztV"/></g><g transform="translate(-470 -451)"><use fill="#fff" xlink:href="#kiztW"/></g><g transform="translate(-470 -451)"><use fill="#fff" xlink:href="#kiztX"/></g><g transform="translate(-470 -451)"><use fill="#fff" xlink:href="#kiztY"/></g><g transform="translate(-470 -451)"><use fill="#fff" xlink:href="#kiztZ"/></g><g transform="translate(-470 -451)"><use fill="#fff" xlink:href="#kiztaa"/></g><g transform="translate(-470 -451)"><use fill="#fff" xlink:href="#kiztab"/></g><g transform="translate(-470 -451)"><use fill="#fff" xlink:href="#kiztac"/></g><g transform="translate(-470 -451)"><use fill="#fff" xlink:href="#kiztad"/></g><g transform="translate(-470 -451)"><use fill="#fff" xlink:href="#kiztae"/></g><g transform="translate(-470 -451)"><use fill="#fff" xlink:href="#kiztaf"/></g><g transform="translate(-470 -451)"><use fill="#fff" xlink:href="#kiztag"/></g><g transform="translate(-470 -451)"><use fill="#fff" xlink:href="#kiztah"/></g><g transform="translate(-470 -451)"><use fill="#fff" xlink:href="#kiztai"/></g><g transform="translate(-470 -451)"><use fill="#fff" xlink:href="#kiztaj"/></g><g transform="translate(-470 -451)"><use fill="#fff" xlink:href="#kiztak"/></g><g transform="translate(-470 -451)"><use fill="#fff" xlink:href="#kiztal"/></g><g transform="translate(-470 -451)"><use fill="#fff" xlink:href="#kiztam"/></g><g transform="translate(-470 -451)"><use fill="#fff" xlink:href="#kiztan"/></g><g transform="translate(-470 -451)"><use fill="#fff" xlink:href="#kiztao"/></g><g transform="translate(-470 -451)"><use fill="#fff" xlink:href="#kiztap"/></g><g transform="translate(-470 -451)"><use fill="#fff" xlink:href="#kiztaq"/></g><g transform="translate(-470 -451)"><use fill="#fff" xlink:href="#kiztar"/></g><g transform="translate(-470 -451)"><use fill="#fff" xlink:href="#kiztas"/></g><g transform="translate(-470 -451)"><use fill="#fff" xlink:href="#kiztat"/></g><g transform="translate(-470 -451)"><use fill="#fff" xlink:href="#kiztau"/></g><g transform="translate(-470 -451)"><use fill="#fff" xlink:href="#kiztav"/></g><g transform="translate(-470 -451)"><use fill="#fff" xlink:href="#kiztaw"/></g><g transform="translate(-470 -451)"><use fill="#fff" xlink:href="#kiztax"/></g><g transform="translate(-470 -451)"><use fill="#fff" xlink:href="#kiztay"/></g><g transform="translate(-470 -451)"><use fill="#fff" xlink:href="#kiztaz"/></g><g transform="translate(-470 -451)"><use fill="#fff" xlink:href="#kiztaA"/></g><g transform="translate(-470 -451)"><use fill="#fff" xlink:href="#kiztaB"/></g><g transform="translate(-470 -451)"><use fill="#fff" xlink:href="#kiztaC"/></g><g transform="translate(-470 -451)"><use fill="#fff" xlink:href="#kiztaD"/></g><g transform="translate(-470 -451)"><use fill="#fff" xlink:href="#kiztaE"/></g><g transform="translate(-470 -451)"><use fill="#fff" xlink:href="#kiztaF"/></g><g transform="translate(-470 -451)"><use fill="#fff" xlink:href="#kiztaG"/></g><g transform="translate(-470 -451)"><use fill="#fff" xlink:href="#kiztaH"/></g><g transform="translate(-470 -451)"><use fill="#fff" xlink:href="#kiztaI"/></g><g transform="translate(-470 -451)"><use fill="#fff" xlink:href="#kiztaJ"/></g><g transform="translate(-470 -451)"><use fill="#fff" xlink:href="#kiztaK"/></g><g transform="translate(-470 -451)"><use fill="#fff" xlink:href="#kiztaL"/></g><g transform="translate(-470 -451)"><use fill="#fff" xlink:href="#kiztaM"/></g><g transform="translate(-470 -451)"><use fill="#fff" xlink:href="#kiztaN"/></g><g transform="translate(-470 -451)"><use fill="#fff" xlink:href="#kiztaO"/></g><g transform="translate(-470 -451)"><use fill="#fff" xlink:href="#kiztaP"/></g><g transform="translate(-470 -451)"><use fill="#fff" xlink:href="#kiztaQ"/></g><g transform="translate(-470 -451)"><use fill="#fff" xlink:href="#kiztaR"/></g><g transform="translate(-470 -451)"><use fill="#fff" xlink:href="#kiztaS"/></g></g></svg>